<?xml version="1.0" encoding="utf-8"?>
<!-- Generator: Adobe Illustrator 18.0.0, SVG Export Plug-In . SVG Version: 6.00 Build 0)  -->
<!DOCTYPE svg PUBLIC "-//W3C//DTD SVG 1.1//EN" "http://www.w3.org/Graphics/SVG/1.1/DTD/svg11.dtd">
<svg version="1.1" id="Layer_1" xmlns="http://www.w3.org/2000/svg" xmlns:xlink="http://www.w3.org/1999/xlink" x="0px" y="0px"
	 viewBox="0 0 128 128" enable-background="new 0 0 128 128" xml:space="preserve">
<path fill="#FFFFFF" d="M31.6,105c-8.2,0-14.9-6.8-14.9-15s6.7-15,14.9-15h51.3c8.2,0,14.9,6.8,14.9,15s-6.7,15-14.9,15H31.6z"/>
<path fill="none" stroke="#3D3D3D" stroke-width="2" stroke-miterlimit="10" d="M31.6,105c-8.2,0-14.9-6.8-14.9-15s6.7-15,14.9-15
	h51.3c8.2,0,14.9,6.8,14.9,15s-6.7,15-14.9,15H31.6z"/>
<path fill="#FFFFFF" d="M25,81.9V42h10v5.1c0,0,9,2,9.5,9c-0.5,0.5-9.5,0-9.5,0V66h6v-4h4v13.5L25,81.9z"/>
<path fill="none" stroke="#3D3D3D" stroke-width="2" stroke-linejoin="round" stroke-miterlimit="10" d="M25,81.9V42h10v5.1
	c0,0,9,2,9.5,9c-0.5,0.5-9.5,0-9.5,0V66h6v-4h4v13.5L25,81.9z"/>
<path fill="#FFFFFF" d="M35.6,105c-8.2,0-14.9-6.8-14.9-15s6.7-15,14.9-15h51.3c8.2,0,14.9,6.8,14.9,15s-6.7,15-14.9,15H35.6z"/>
<path fill="none" stroke="#3D3D3D" stroke-width="2" stroke-miterlimit="10" d="M35.6,105c-8.2,0-14.9-6.8-14.9-15s6.7-15,14.9-15
	h51.3c8.2,0,14.9,6.8,14.9,15s-6.7,15-14.9,15H35.6z"/>
<path fill="#FFFFFF" d="M39.6,105c-8.2,0-14.9-6.8-14.9-15s6.7-15,14.9-15h51.3c8.2,0,14.9,6.8,14.9,15s-6.7,15-14.9,15H39.6z"/>
<path fill="none" stroke="#3D3D3D" stroke-width="2" stroke-miterlimit="10" d="M39.6,105c-8.2,0-14.9-6.8-14.9-15s6.7-15,14.9-15
	h51.3c8.2,0,14.9,6.8,14.9,15s-6.7,15-14.9,15H39.6z"/>
<path fill="#FFFFFF" d="M105,79V27.7c0,0-12,5-12,18.4S93,75,93,75"/>
<path fill="none" stroke="#3D3D3D" stroke-width="2" stroke-linejoin="round" stroke-miterlimit="10" d="M105,79V27.7
	c0,0-12,5-12,18.4S93,75,93,75"/>
<path fill="#FFFFFF" d="M34.9,75.5c0,0,25.5-17.7,27.4-18.9c1.8-1.2,7.3-0.7,9.8,0c-0.8,5.2-2.6,7.5-5.9,9.7
	C63.6,68,43.2,81.4,43.2,81.4"/>
<path fill="none" stroke="#3D3D3D" stroke-width="2" stroke-linejoin="round" stroke-miterlimit="10" d="M34.9,75.5
	c0,0,25.5-17.7,27.4-18.9c1.8-1.2,7.3-0.7,9.8,0c-0.8,5.2-2.6,7.5-5.9,9.7C63.6,68,43.2,81.4,43.2,81.4"/>
<path fill="#53AF80" d="M43.5,105c-8.2,0-14.9-6.8-14.9-15s6.7-15,14.9-15h51.3c8.2,0,14.9,6.8,14.9,15s-6.7,15-14.9,15H43.5z"/>
<path fill="none" stroke="#3D3D3D" stroke-width="2" stroke-miterlimit="10" d="M43.5,105c-8.2,0-14.9-6.8-14.9-15s6.7-15,14.9-15
	h51.3c8.2,0,14.9,6.8,14.9,15s-6.7,15-14.9,15H43.5z"/>
<polygon fill="#FFFFFF" points="79,87 73,87 73,81 67,81 67,87 61,87 61,93 67,93 67,99 73,99 73,93 79,93 "/>
</svg>
