<?xml version="1.0" encoding="utf-8"?>
<!-- Generator: Adobe Illustrator 18.0.0, SVG Export Plug-In . SVG Version: 6.00 Build 0)  -->
<!DOCTYPE svg PUBLIC "-//W3C//DTD SVG 1.1//EN" "http://www.w3.org/Graphics/SVG/1.1/DTD/svg11.dtd">
<svg version="1.1" id="Layer_1" xmlns="http://www.w3.org/2000/svg" xmlns:xlink="http://www.w3.org/1999/xlink" x="0px" y="0px"
	 viewBox="0 0 128 128" enable-background="new 0 0 128 128" xml:space="preserve">
<path fill="#53AF80" d="M96,112H30.2c-2.1,0-4.2-1.3-4.2-3.4V53.8c0-2.1,2.1-3.8,4.2-3.8H96V112z"/>
<path fill="none" stroke="#3D3D3D" stroke-width="2" stroke-miterlimit="10" d="M96,112H30.2c-2.1,0-4.2-1.3-4.2-3.4V53.8
	c0-2.1,2.1-3.8,4.2-3.8H96V112z"/>
<path fill="#E2E2E2" d="M101,18.9V91H40V18.9c0-2.1,1.2-3.9,3.3-3.9h54.8C100.2,15,101,16.8,101,18.9z"/>
<path fill="none" stroke="#3D3D3D" stroke-width="2" stroke-miterlimit="10" d="M101,18.9V91H40V18.9c0-2.1,1.2-3.9,3.3-3.9h54.8
	C100.2,15,101,16.8,101,18.9z"/>
<path fill="#53AF80" d="M55.8,59c-4,0-7.2-3.5-7.2-7.5s3.2-7.5,7.2-7.5H59v15H55.8z"/>
<path fill="none" stroke="#3D3D3D" stroke-width="2" stroke-miterlimit="10" d="M55.8,59c-4,0-7.2-3.5-7.2-7.5s3.2-7.5,7.2-7.5H59
	v15H55.8z"/>
<circle fill="#8DCEA8" cx="58.8" cy="51.3" r="7.2"/>
<path fill="#53AF80" d="M81.8,59c-4,0-7.2-3.5-7.2-7.5s3.2-7.5,7.2-7.5H85v15H81.8z"/>
<path fill="none" stroke="#3D3D3D" stroke-width="2" stroke-miterlimit="10" d="M81.8,59c-4,0-7.2-3.5-7.2-7.5s3.2-7.5,7.2-7.5H85
	v15H81.8z"/>
<circle fill="#8DCEA8" cx="84.8" cy="51.3" r="7.2"/>
<circle fill="none" stroke="#3D3D3D" stroke-width="2" stroke-miterlimit="10" cx="84.8" cy="51.4" r="7.5"/>
<circle fill="none" stroke="#3D3D3D" stroke-width="2" stroke-miterlimit="10" cx="58.8" cy="51.4" r="7.5"/>
<path fill="#FFFFFF" d="M103.8,112H32V50h71.8c2.1,0,4.2,1.7,4.2,3.8v54.8C108,110.7,105.9,112,103.8,112z"/>
<path fill="none" stroke="#3D3D3D" stroke-width="2" stroke-miterlimit="10" d="M103.8,112H32V50h71.8c2.1,0,4.2,1.7,4.2,3.8v54.8
	C108,110.7,105.9,112,103.8,112z"/>
<polygon fill="#53AF80" points="89,75 77,75 77,63 62,63 62,75 51,75 51,90 62,90 62,101 77,101 77,90 89,90 "/>
<polygon fill="none" stroke="#3D3D3D" stroke-width="2" stroke-miterlimit="10" points="89,75 77,75 77,63 62,63 62,75 51,75 51,90 
	62,90 62,101 77,101 77,90 89,90 "/>
<path fill="#53AF80" d="M55.8,38c-4,0-7.2-3.5-7.2-7.5s3.2-7.5,7.2-7.5H59v15H55.8z"/>
<path fill="none" stroke="#3D3D3D" stroke-width="2" stroke-miterlimit="10" d="M55.8,38c-4,0-7.2-3.5-7.2-7.5s3.2-7.5,7.2-7.5H59
	v15H55.8z"/>
<circle fill="#8DCEA8" cx="58.8" cy="30.3" r="7.2"/>
<path fill="#53AF80" d="M81.8,38c-4,0-7.2-3.5-7.2-7.5s3.2-7.5,7.2-7.5H85v15H81.8z"/>
<path fill="none" stroke="#3D3D3D" stroke-width="2" stroke-miterlimit="10" d="M81.8,38c-4,0-7.2-3.5-7.2-7.5s3.2-7.5,7.2-7.5H85
	v15H81.8z"/>
<circle fill="#8DCEA8" cx="84.8" cy="30.3" r="7.2"/>
<circle fill="none" stroke="#3D3D3D" stroke-width="2" stroke-miterlimit="10" cx="84.8" cy="30.5" r="7.5"/>
<circle fill="none" stroke="#3D3D3D" stroke-width="2" stroke-miterlimit="10" cx="58.8" cy="30.5" r="7.5"/>
</svg>
