<?xml version="1.0" encoding="utf-8"?>
<!-- Generator: Adobe Illustrator 18.0.0, SVG Export Plug-In . SVG Version: 6.00 Build 0)  -->
<!DOCTYPE svg PUBLIC "-//W3C//DTD SVG 1.1//EN" "http://www.w3.org/Graphics/SVG/1.1/DTD/svg11.dtd">
<svg version="1.1" id="Layer_1" xmlns="http://www.w3.org/2000/svg" xmlns:xlink="http://www.w3.org/1999/xlink" x="0px" y="0px"
	 viewBox="0 0 128 128" enable-background="new 0 0 128 128" xml:space="preserve">
<path fill="#C1C1C0" d="M110,50v18.4c0,4.1-3.2,7.6-7.3,7.6H23.3c-4.1,0-7.3-3.4-7.3-7.6V50h-0.3C11.6,50,8,53.1,8,57.2v13.1
	C8,78.6,15.1,85,23.3,85h79.4c8.3,0,15.3-6.4,15.3-14.7V57.2c0-4.1-3.6-7.2-7.7-7.2H110z"/>
<path fill="none" stroke="#3D3D3D" stroke-width="2" stroke-linecap="square" stroke-linejoin="round" stroke-miterlimit="10" d="
	M110,50v18.4c0,4.1-3.2,7.6-7.3,7.6H23.3c-4.1,0-7.3-3.4-7.3-7.6V50h-0.3C11.6,50,8,53.1,8,57.2v13.1C8,78.6,15.1,85,23.3,85h79.4
	c8.3,0,15.3-6.4,15.3-14.7V57.2c0-4.1-3.6-7.2-7.7-7.2H110z"/>
<line fill="none" stroke="#3D3D3D" stroke-width="2" stroke-linecap="square" stroke-linejoin="round" stroke-miterlimit="10" x1="21" y1="50" x2="21" y2="74"/>
<line fill="none" stroke="#3D3D3D" stroke-width="2" stroke-linecap="square" stroke-linejoin="round" stroke-miterlimit="10" x1="27" y1="50" x2="27" y2="74"/>
<line fill="none" stroke="#3D3D3D" stroke-width="2" stroke-linecap="square" stroke-linejoin="round" stroke-miterlimit="10" x1="33" y1="50" x2="33" y2="74"/>
<line fill="none" stroke="#3D3D3D" stroke-width="2" stroke-linecap="square" stroke-linejoin="round" stroke-miterlimit="10" x1="39" y1="50" x2="39" y2="74"/>
<line fill="none" stroke="#3D3D3D" stroke-width="2" stroke-linecap="square" stroke-linejoin="round" stroke-miterlimit="10" x1="45" y1="50" x2="45" y2="74"/>
<line fill="none" stroke="#3D3D3D" stroke-width="2" stroke-linecap="square" stroke-linejoin="round" stroke-miterlimit="10" x1="51" y1="50" x2="51" y2="74"/>
<line fill="none" stroke="#3D3D3D" stroke-width="2" stroke-linecap="square" stroke-linejoin="round" stroke-miterlimit="10" x1="57" y1="50" x2="57" y2="74"/>
<line fill="none" stroke="#3D3D3D" stroke-width="2" stroke-linecap="square" stroke-linejoin="round" stroke-miterlimit="10" x1="63" y1="50" x2="63" y2="74"/>
<line fill="none" stroke="#3D3D3D" stroke-width="2" stroke-linecap="square" stroke-linejoin="round" stroke-miterlimit="10" x1="69" y1="50" x2="69" y2="74"/>
<line fill="none" stroke="#3D3D3D" stroke-width="2" stroke-linecap="square" stroke-linejoin="round" stroke-miterlimit="10" x1="75" y1="50" x2="75" y2="74"/>
<line fill="none" stroke="#3D3D3D" stroke-width="2" stroke-linecap="square" stroke-linejoin="round" stroke-miterlimit="10" x1="81" y1="50" x2="81" y2="74"/>
<line fill="none" stroke="#3D3D3D" stroke-width="2" stroke-linecap="square" stroke-linejoin="round" stroke-miterlimit="10" x1="87" y1="50" x2="87" y2="74"/>
<line fill="none" stroke="#3D3D3D" stroke-width="2" stroke-linecap="square" stroke-linejoin="round" stroke-miterlimit="10" x1="93" y1="50" x2="93" y2="74"/>
<line fill="none" stroke="#3D3D3D" stroke-width="2" stroke-linecap="square" stroke-linejoin="round" stroke-miterlimit="10" x1="99" y1="50" x2="99" y2="74"/>
<line fill="none" stroke="#3D3D3D" stroke-width="2" stroke-linecap="square" stroke-linejoin="round" stroke-miterlimit="10" x1="105" y1="50" x2="105" y2="74"/>
</svg>
