<?xml version="1.0" encoding="utf-8"?>
<!-- Generator: Adobe Illustrator 18.0.0, SVG Export Plug-In . SVG Version: 6.00 Build 0)  -->
<!DOCTYPE svg PUBLIC "-//W3C//DTD SVG 1.1//EN" "http://www.w3.org/Graphics/SVG/1.1/DTD/svg11.dtd">
<svg version="1.1" id="Layer_1" xmlns="http://www.w3.org/2000/svg" xmlns:xlink="http://www.w3.org/1999/xlink" x="0px" y="0px"
	 viewBox="0 0 128 128" enable-background="new 0 0 128 128" xml:space="preserve">
<path fill="#53AF80" d="M103,112H32.1c-2.2,0-4.1-1.3-4.1-3.6V23.6c0-2.2,1.9-3.6,4.1-3.6H103V112z"/>
<path fill="none" stroke="#3D3D3D" stroke-width="2" stroke-miterlimit="10" d="M103,112H32.1c-2.2,0-4.1-1.3-4.1-3.6V23.6
	c0-2.2,1.9-3.6,4.1-3.6H103V112z"/>
<path fill="#8DCEA8" d="M105,112H36.2c-2.2,0-4.2-1.3-4.2-3.6V23.6c0-2.2,2-3.6,4.2-3.6H105V112z"/>
<path fill="none" stroke="#3D3D3D" stroke-width="2" stroke-miterlimit="10" d="M105,112H36.2c-2.2,0-4.2-1.3-4.2-3.6V23.6
	c0-2.2,2-3.6,4.2-3.6H105V112z"/>
<circle fill="none" stroke="#3D3D3D" stroke-width="2" stroke-miterlimit="10" cx="68.2" cy="54.3" r="21.5"/>
<line fill="none" stroke="#3D3D3D" stroke-width="2" stroke-miterlimit="10" x1="69" y1="32" x2="69" y2="76"/>
<path fill="none" stroke="#3D3D3D" stroke-width="2" stroke-miterlimit="10" d="M74.1,33.6c0,0,6.3,8.2,6.3,20.7s-5.3,20.4-5.3,20.4
	"/>
<path fill="none" stroke="#3D3D3D" stroke-width="2" stroke-miterlimit="10" d="M63.3,33.6c0,0-6.3,8.2-6.3,20.7s5.3,20.4,5.3,20.4"
	/>
<line fill="none" stroke="#3D3D3D" stroke-width="2" stroke-miterlimit="10" x1="46" y1="54" x2="90" y2="54"/>
<line fill="none" stroke="#3D3D3D" stroke-width="2" stroke-miterlimit="10" x1="49" y1="44" x2="87" y2="44"/>
<line fill="none" stroke="#3D3D3D" stroke-width="2" stroke-miterlimit="10" x1="49" y1="64" x2="87" y2="64"/>
<line fill="none" stroke="#3D3D3D" stroke-width="2" stroke-miterlimit="10" x1="46" y1="90" x2="91" y2="90"/>
</svg>
