<?xml version="1.0" encoding="utf-8"?>
<!-- Generator: Adobe Illustrator 18.0.0, SVG Export Plug-In . SVG Version: 6.00 Build 0)  -->
<!DOCTYPE svg PUBLIC "-//W3C//DTD SVG 1.1//EN" "http://www.w3.org/Graphics/SVG/1.1/DTD/svg11.dtd">
<svg version="1.1" id="Layer_1" xmlns="http://www.w3.org/2000/svg" xmlns:xlink="http://www.w3.org/1999/xlink" x="0px" y="0px"
	 viewBox="0 0 128 128" enable-background="new 0 0 128 128" xml:space="preserve">
<path fill="#FFFFFF" d="M65.6,34.7l1.6,79.9l-32.2,0l1.7-79.9c0.1-3.8,3.3-6.8,7.1-6.8l14.7,0C62.3,27.9,65.5,30.9,65.6,34.7z"/>
<path fill="none" stroke="#3D3D3D" stroke-width="2" stroke-linecap="round" stroke-linejoin="round" stroke-miterlimit="10" d="
	M65.6,34.7l1.6,79.9l-32.2,0l1.7-79.9c0.1-3.8,3.3-6.8,7.1-6.8l14.7,0C62.3,27.9,65.5,30.9,65.6,34.7z"/>
<line fill="none" stroke="#3D3D3D" stroke-width="2" stroke-linejoin="round" stroke-miterlimit="10" x1="36" y1="107" x2="67" y2="107"/>
<line fill="none" stroke="#3D3D3D" stroke-width="2" stroke-linecap="round" stroke-linejoin="round" stroke-miterlimit="10" x1="41" y1="114" x2="41" y2="107"/>
<line fill="none" stroke="#3D3D3D" stroke-width="2" stroke-linecap="round" stroke-linejoin="round" stroke-miterlimit="10" x1="46" y1="114" x2="46" y2="107"/>
<line fill="none" stroke="#3D3D3D" stroke-width="2" stroke-linecap="round" stroke-linejoin="round" stroke-miterlimit="10" x1="51" y1="114" x2="51" y2="107"/>
<line fill="none" stroke="#3D3D3D" stroke-width="2" stroke-linecap="round" stroke-linejoin="round" stroke-miterlimit="10" x1="56" y1="114" x2="56" y2="107"/>
<line fill="none" stroke="#3D3D3D" stroke-width="2" stroke-linecap="round" stroke-linejoin="round" stroke-miterlimit="10" x1="61" y1="114" x2="61" y2="107"/>
<path fill="#53AF80" d="M59,17.5V27H42v-9.5c0-1.9,2.5-3.5,4.5-3.5h8.7C57,14,59,15.5,59,17.5z"/>
<path fill="none" stroke="#3D3D3D" stroke-width="2" stroke-linecap="round" stroke-linejoin="round" stroke-miterlimit="10" d="
	M59,17.5V27H42v-9.5c0-1.9,2.5-3.5,4.5-3.5h8.7C57,14,59,15.5,59,17.5z"/>
<line fill="none" stroke="#3D3D3D" stroke-width="2" stroke-linejoin="round" stroke-miterlimit="10" x1="48" y1="27" x2="48" y2="18"/>
<line fill="none" stroke="#3D3D3D" stroke-width="2" stroke-linejoin="round" stroke-miterlimit="10" x1="53" y1="27" x2="53" y2="18"/>
<rect x="45" y="41" fill="#8DCEA8" width="12" height="52"/>
<rect x="45" y="41" fill="none" stroke="#3D3D3D" stroke-width="2" stroke-linejoin="round" stroke-miterlimit="10" width="12" height="52"/>
<rect x="90" y="14" fill="#53AF80" width="4" height="100"/>
<rect x="90" y="14" fill="none" stroke="#3D3D3D" stroke-width="2" stroke-linecap="round" stroke-linejoin="round" stroke-miterlimit="10" width="4" height="100"/>
<rect x="77" y="15" fill="#FFFFFF" width="13" height="26"/>
<rect x="77" y="15" fill="none" stroke="#3D3D3D" stroke-width="2" stroke-linecap="round" stroke-linejoin="round" stroke-miterlimit="10" width="13" height="26"/>
<line fill="none" stroke="#3D3D3D" stroke-width="2" stroke-linecap="square" stroke-linejoin="round" stroke-miterlimit="10" x1="77" y1="36" x2="85" y2="36"/>
<line fill="none" stroke="#3D3D3D" stroke-width="2" stroke-linecap="square" stroke-linejoin="round" stroke-miterlimit="10" x1="77" y1="31" x2="85" y2="31"/>
<line fill="none" stroke="#3D3D3D" stroke-width="2" stroke-linecap="square" stroke-linejoin="round" stroke-miterlimit="10" x1="77" y1="26" x2="85" y2="26"/>
<line fill="none" stroke="#3D3D3D" stroke-width="2" stroke-linecap="square" stroke-linejoin="round" stroke-miterlimit="10" x1="77" y1="21" x2="85" y2="21"/>
</svg>
