<?xml version="1.0" encoding="utf-8"?>
<!-- Generator: Adobe Illustrator 18.0.0, SVG Export Plug-In . SVG Version: 6.00 Build 0)  -->
<!DOCTYPE svg PUBLIC "-//W3C//DTD SVG 1.1//EN" "http://www.w3.org/Graphics/SVG/1.1/DTD/svg11.dtd">
<svg version="1.1" id="Layer_1" xmlns="http://www.w3.org/2000/svg" xmlns:xlink="http://www.w3.org/1999/xlink" x="0px" y="0px"
	 viewBox="0 0 128 128" enable-background="new 0 0 128 128" xml:space="preserve">
<path fill="#53AF80" d="M63.8,76.4c-7.6,0-13.7-6.2-13.7-13.8s6.1-13.8,13.7-13.8l4.2,0.3v27.5L63.8,76.4z"/>
<rect x="59" y="20" fill="#8DCEA8" width="14" height="33"/>
<rect x="59" y="20" fill="none" stroke="#3D3D3D" stroke-width="2" stroke-miterlimit="10" width="14" height="33"/>
<polygon fill="#8DCEA8" points="73,74 59,74 59,111.6 66,116.9 73,111.6 "/>
<polygon fill="none" stroke="#3D3D3D" stroke-width="2" stroke-miterlimit="10" points="73,74 59,74 59,111.6 66,116.9 73,111.6 "/>
<path fill="none" stroke="#3D3D3D" stroke-width="2" stroke-miterlimit="10" d="M63.9,77c-7.6,0-13.8-6.4-13.8-14s6.2-14,13.8-14H68
	v28H63.9z"/>
<circle fill="#FFFFFF" cx="68.1" cy="63" r="13.8"/>
<circle fill="none" stroke="#3D3D3D" stroke-width="2" stroke-miterlimit="10" cx="68.1" cy="63" r="13.8"/>
<polyline fill="none" stroke="#3D3D3D" stroke-width="2" stroke-miterlimit="10" points="68,53 68,63 73,63 "/>
<path fill="none" stroke="#3D3D3D" stroke-width="2" stroke-miterlimit="10" d="M75,11.1c0-0.6-0.5-1.1-1.1-1.1H57.1
	c-0.6,0-1.1,0.5-1.1,1.1v7.9c0,0.6,0.5,1.1,1.1,1.1h16.9c0.6,0,1.1-0.5,1.1-1.1V11.1z"/>
<line fill="none" stroke="#3D3D3D" stroke-width="2" stroke-miterlimit="10" x1="66" y1="20" x2="66" y2="12"/>
<circle fill="#3D3D3D" cx="66" cy="100" r="2.1"/>
<circle fill="#3D3D3D" cx="66" cy="107.7" r="2.1"/>
<circle fill="#3D3D3D" cx="66" cy="92.3" r="2.1"/>
</svg>
