<?xml version="1.0" encoding="utf-8"?>
<!-- Generator: Adobe Illustrator 18.0.0, SVG Export Plug-In . SVG Version: 6.00 Build 0)  -->
<!DOCTYPE svg PUBLIC "-//W3C//DTD SVG 1.1//EN" "http://www.w3.org/Graphics/SVG/1.1/DTD/svg11.dtd">
<svg version="1.1" id="Layer_1" xmlns="http://www.w3.org/2000/svg" xmlns:xlink="http://www.w3.org/1999/xlink" x="0px" y="0px"
	 viewBox="0 0 128 128" enable-background="new 0 0 128 128" xml:space="preserve">
<path fill="#53AF80" d="M102,80c0,4.4-3.6,8-8,8H19c-4.4,0-8-3.6-8-8V48c0-4.4,3.6-8,8-8h75c4.4,0,8,3.6,8,8V80z"/>
<path fill="none" stroke="#3D3D3D" stroke-width="2" stroke-miterlimit="10" d="M102,80c0,4.4-3.6,8-8,8H19c-4.4,0-8-3.6-8-8V48
	c0-4.4,3.6-8,8-8h75c4.4,0,8,3.6,8,8V80z"/>
<path fill="#8DCEA8" d="M116,80c0,4.4-3.6,8-8,8H33c-4.4,0-8-3.6-8-8V48c0-4.4,3.6-8,8-8h75c4.4,0,8,3.6,8,8V80z"/>
<path fill="none" stroke="#3D3D3D" stroke-width="2" stroke-miterlimit="10" d="M116,80c0,4.4-3.6,8-8,8H33c-4.4,0-8-3.6-8-8V48
	c0-4.4,3.6-8,8-8h75c4.4,0,8,3.6,8,8V80z"/>
<path fill="none" stroke="#3D3D3D" stroke-width="2" stroke-linecap="square" stroke-linejoin="round" stroke-miterlimit="10" stroke-dasharray="3,4" d="
	M18,67V48c0-4.4,3.6-8,8-8h75"/>
<line fill="none" stroke="#3D3D3D" stroke-width="2" stroke-miterlimit="10" x1="11" y1="67" x2="25" y2="67"/>
<path fill="none" stroke="#3D3D3D" stroke-width="2" stroke-miterlimit="10" d="M116.7,53.9c1.8,3.9,3.6,8.3,4,12.7
	c0.4,4.4-2.7,5.3-4,0S116.7,53.9,116.7,53.9z"/>
<rect x="34" y="65" fill="#FFFFFF" width="13" height="14"/>
<rect x="34" y="65" fill="none" stroke="#3D3D3D" stroke-width="2" stroke-miterlimit="10" width="13" height="14"/>
</svg>
