<?xml version="1.0" encoding="utf-8"?>
<!-- Generator: Adobe Illustrator 18.0.0, SVG Export Plug-In . SVG Version: 6.00 Build 0)  -->
<!DOCTYPE svg PUBLIC "-//W3C//DTD SVG 1.1//EN" "http://www.w3.org/Graphics/SVG/1.1/DTD/svg11.dtd">
<svg version="1.1" id="Layer_1" xmlns="http://www.w3.org/2000/svg" xmlns:xlink="http://www.w3.org/1999/xlink" x="0px" y="0px"
	 viewBox="0 0 128 128" enable-background="new 0 0 128 128" xml:space="preserve">
<path fill="#E2E2E2" d="M106,21.7c0-3.2-2.6-5.7-5.7-5.7H28.7c-3.2,0-5.7,2.6-5.7,5.7v87.5c0,3.2,2.6,5.7,5.7,5.7h71.5
	c3.2,0,5.7-2.6,5.7-5.7V21.7z"/>
<path fill="none" stroke="#3D3D3D" stroke-width="2" stroke-miterlimit="10" d="M106,21.7c0-3.2-2.6-5.7-5.7-5.7H28.7
	c-3.2,0-5.7,2.6-5.7,5.7v87.5c0,3.2,2.6,5.7,5.7,5.7h71.5c3.2,0,5.7-2.6,5.7-5.7V21.7z"/>
<path fill="#C1C1C0" d="M110,21.7c0-3.2-2.6-5.7-5.7-5.7H32.7c-3.2,0-5.7,2.6-5.7,5.7v87.5c0,3.2,2.6,5.7,5.7,5.7h71.5
	c3.2,0,5.7-2.6,5.7-5.7V21.7z"/>
<path fill="none" stroke="#3D3D3D" stroke-width="2" stroke-miterlimit="10" d="M110,21.7c0-3.2-2.6-5.7-5.7-5.7H32.7
	c-3.2,0-5.7,2.6-5.7,5.7v87.5c0,3.2,2.6,5.7,5.7,5.7h71.5c3.2,0,5.7-2.6,5.7-5.7V21.7z"/>
<rect x="40" y="32" fill="#FFFFFF" width="59" height="63"/>
<rect x="40" y="32" fill="none" stroke="#3D3D3D" stroke-width="2" stroke-miterlimit="10" width="59" height="63"/>
<line fill="none" stroke="#3D3D3D" stroke-width="2" stroke-miterlimit="10" x1="40" y1="43" x2="99" y2="43"/>
<rect x="47" y="36" fill="none" stroke="#3D3D3D" stroke-width="2" stroke-miterlimit="10" width="3" height="3"/>
<rect x="57" y="36" fill="none" stroke="#3D3D3D" stroke-width="2" stroke-miterlimit="10" width="3" height="3"/>
<rect x="67" y="36" fill="none" stroke="#3D3D3D" stroke-width="2" stroke-miterlimit="10" width="3" height="3"/>
<rect x="77" y="36" fill="none" stroke="#3D3D3D" stroke-width="2" stroke-miterlimit="10" width="3" height="3"/>
<rect x="87" y="36" fill="none" stroke="#3D3D3D" stroke-width="2" stroke-miterlimit="10" width="3" height="3"/>
<line fill="none" stroke="#3D3D3D" stroke-width="2" stroke-miterlimit="10" x1="49" y1="52" x2="90" y2="52"/>
<line fill="none" stroke="#3D3D3D" stroke-width="2" stroke-miterlimit="10" x1="49" y1="56" x2="90" y2="56"/>
<line fill="none" stroke="#3D3D3D" stroke-width="2" stroke-miterlimit="10" x1="49" y1="60" x2="82" y2="60"/>
<line fill="none" stroke="#3D3D3D" stroke-width="2" stroke-miterlimit="10" x1="49" y1="65" x2="90" y2="65"/>
<line fill="none" stroke="#3D3D3D" stroke-width="2" stroke-miterlimit="10" x1="49" y1="69" x2="90" y2="69"/>
<line fill="none" stroke="#3D3D3D" stroke-width="2" stroke-miterlimit="10" x1="49" y1="73" x2="72" y2="73"/>
<line fill="none" stroke="#3D3D3D" stroke-width="2" stroke-miterlimit="10" x1="49" y1="78" x2="90" y2="78"/>
<line fill="none" stroke="#3D3D3D" stroke-width="2" stroke-miterlimit="10" x1="49" y1="82" x2="90" y2="82"/>
<line fill="none" stroke="#3D3D3D" stroke-width="2" stroke-miterlimit="10" x1="93" y1="89" x2="87" y2="89"/>
<line fill="none" stroke="#3D3D3D" stroke-width="2" stroke-miterlimit="10" x1="53" y1="89" x2="47" y2="89"/>
<line fill="none" stroke="#3D3D3D" stroke-width="2" stroke-miterlimit="10" x1="60" y1="105" x2="82" y2="105"/>
</svg>
