<?xml version="1.0" encoding="utf-8"?>
<!-- Generator: Adobe Illustrator 18.0.0, SVG Export Plug-In . SVG Version: 6.00 Build 0)  -->
<!DOCTYPE svg PUBLIC "-//W3C//DTD SVG 1.1//EN" "http://www.w3.org/Graphics/SVG/1.1/DTD/svg11.dtd">
<svg version="1.1" id="Layer_1" xmlns="http://www.w3.org/2000/svg" xmlns:xlink="http://www.w3.org/1999/xlink" x="0px" y="0px"
	 viewBox="0 0 128 128" enable-background="new 0 0 128 128" xml:space="preserve">
<path fill="#C1C1C0" d="M88,82H30c-4.6,0-8-3.6-8-8.2V30.6c0-4.6,3.4-8.6,8-8.6h58"/>
<path fill="none" stroke="#3D3D3D" stroke-width="2" stroke-miterlimit="10" d="M88,82H30c-4.6,0-8-3.6-8-8.2V30.6
	c0-4.6,3.4-8.6,8-8.6h58"/>
<path fill="#E2E2E2" d="M104,73.8c0,4.6-3.7,8.2-8.2,8.2H38.2c-4.6,0-8.2-3.7-8.2-8.2V30.2c0-4.6,3.7-8.2,8.2-8.2h57.5
	c4.6,0,8.2,3.7,8.2,8.2V73.8z"/>
<rect x="57" y="17" fill="#3D3D3D" width="45" height="5"/>
<path fill="none" stroke="#3D3D3D" stroke-width="2" stroke-miterlimit="10" d="M104,73.8c0,4.6-3.7,8.2-8.2,8.2H38.2
	c-4.6,0-8.2-3.7-8.2-8.2V30.2c0-4.6,3.7-8.2,8.2-8.2h57.5c4.6,0,8.2,3.7,8.2,8.2V73.8z"/>
<path fill="#FFFFFF" d="M108,55.9c0,2.3-1.8,4.1-4.1,4.1H66.1c-2.3,0-4.1-1.8-4.1-4.1V24.1c0-2.3,1.8-4.1,4.1-4.1h37.8
	c2.3,0,4.1,1.8,4.1,4.1V55.9z"/>
<path fill="none" stroke="#3D3D3D" stroke-width="2" stroke-miterlimit="10" d="M108,55.9c0,2.3-1.8,4.1-4.1,4.1H66.1
	c-2.3,0-4.1-1.8-4.1-4.1V24.1c0-2.3,1.8-4.1,4.1-4.1h37.8c2.3,0,4.1,1.8,4.1,4.1V55.9z"/>
<rect x="90" y="68" fill="none" stroke="#3D3D3D" stroke-width="2" stroke-miterlimit="10" width="8" height="4"/>
<rect x="62" y="68" fill="none" stroke="#3D3D3D" stroke-width="2" stroke-miterlimit="10" width="23" height="4"/>
<rect x="69" y="26" fill="#C1C1C0" width="33" height="27"/>
<rect x="69" y="26" fill="none" stroke="#3D3D3D" stroke-width="2" stroke-miterlimit="10" width="33" height="27"/>
<circle fill="#53AF80" cx="85.5" cy="39.7" r="12.5"/>
<circle fill="none" stroke="#3D3D3D" stroke-width="2" stroke-miterlimit="10" cx="85.5" cy="39.7" r="12.5"/>
<circle fill="#3D3D3D" cx="85.5" cy="39.7" r="6"/>
<circle fill="#FFFFFF" cx="47.3" cy="65.4" r="8.2"/>
<circle fill="none" stroke="#3D3D3D" stroke-width="2" stroke-miterlimit="10" cx="47.3" cy="65.4" r="8.2"/>
<path fill="#8DCEA8" d="M57,31.1c0-1.1-0.9-2.1-2.1-2.1H38.1c-1.1,0-2.1,0.9-2.1,2.1v11.9c0,1.1,0.9,2.1,2.1,2.1h16.9
	c1.1,0,2.1-0.9,2.1-2.1V31.1z"/>
<path fill="none" stroke="#3D3D3D" stroke-width="2" stroke-miterlimit="10" d="M57,31.1c0-1.1-0.9-2.1-2.1-2.1H38.1
	c-1.1,0-2.1,0.9-2.1,2.1v11.9c0,1.1,0.9,2.1,2.1,2.1h16.9c1.1,0,2.1-0.9,2.1-2.1V31.1z"/>
<line fill="none" stroke="#3D3D3D" stroke-width="2" stroke-miterlimit="10" x1="40" y1="29" x2="40" y2="45"/>
<rect x="22" y="57" fill="#3D3D3D" width="8" height="11"/>
<path fill="none" stroke="#3D3D3D" stroke-width="2" stroke-miterlimit="10" d="M54.7,12H42.3c-1.1,0-2.3,0.9-2.3,2.1V22h17v-7.9
	C57,12.9,55.8,12,54.7,12z"/>
<line fill="none" stroke="#3D3D3D" stroke-width="2" stroke-miterlimit="10" x1="51" y1="12" x2="51" y2="20"/>
<line fill="none" stroke="#3D3D3D" stroke-width="2" stroke-miterlimit="10" x1="46" y1="12" x2="46" y2="20"/>
<rect x="38" y="82" fill="#C1C1C0" width="56" height="6"/>
<rect x="38" y="82" fill="none" stroke="#3D3D3D" stroke-width="2" stroke-miterlimit="10" width="56" height="6"/>
<polyline fill="#C1C1C0" points="59,115 59,88 73,88 73,115 "/>
<polyline fill="none" stroke="#3D3D3D" stroke-width="2" stroke-miterlimit="10" points="59,115 59,88 73,88 73,115 "/>
<line fill="none" stroke="#3D3D3D" stroke-width="2" stroke-miterlimit="10" x1="65" y1="88" x2="65" y2="115"/>
</svg>
