<?xml version="1.0" encoding="utf-8"?>
<!-- Generator: Adobe Illustrator 18.0.0, SVG Export Plug-In . SVG Version: 6.00 Build 0)  -->
<!DOCTYPE svg PUBLIC "-//W3C//DTD SVG 1.1//EN" "http://www.w3.org/Graphics/SVG/1.1/DTD/svg11.dtd">
<svg version="1.1" id="Layer_1" xmlns="http://www.w3.org/2000/svg" xmlns:xlink="http://www.w3.org/1999/xlink" x="0px" y="0px"
	 viewBox="0 0 128 128" enable-background="new 0 0 128 128" xml:space="preserve">
<path fill="none" stroke="#3D3D3D" stroke-width="2" stroke-miterlimit="10" d="M-262.3-197c-6.5,6.5-13.9,7.9-21.6-1.3
	c-7.5-9,1.6-18,24.2-40.7s26.5-10.9,33.8-18.2c18.6-18.6,47.2-24.4,34-10.8"/>
<path fill="#8DCEA8" d="M-222.4-268.1l-39.8,39.8c-8.6,8.6-8.8,22.9-0.1,31.3c8.5,8.2,21.9,8.1,30.3-0.3c5.8-5.8,10.1-11.5,8.7-18.1
	c-0.8-3.6,0.2-7.3,2.8-9.9l0.7-0.7c2.6-2.6,6.3-3.6,9.9-2.8c6.3,1.4,11.7-2.5,17.3-7.8c8.9-8.4,9.6-22.8,0.9-31.5
	C-200.3-276.5-214-276.5-222.4-268.1z"/>
<path fill="none" stroke="#3D3D3D" stroke-width="2" stroke-miterlimit="10" d="M-222.4-268.1l-39.8,39.8
	c-8.6,8.6-8.8,22.9-0.1,31.3c8.5,8.2,21.9,8.1,30.3-0.3c5.8-5.8,10.1-11.5,8.7-18.1c-0.8-3.6,0.2-7.3,2.8-9.9l0.7-0.7
	c2.6-2.6,6.3-3.6,9.9-2.8c6.3,1.4,11.7-2.5,17.3-7.8c8.9-8.4,9.6-22.8,0.9-31.5C-200.3-276.5-214-276.5-222.4-268.1z"/>
<path fill="none" stroke="#3D3D3D" stroke-width="2" stroke-linecap="square" stroke-linejoin="round" stroke-miterlimit="10" stroke-dasharray="5" d="
	M-236.1-201.4c-6,6-16,6.1-22.1,0.2c-3-2.8-4.6-6.8-4.6-11c0-4.5,1.7-8.8,4.8-11.9l39.8-39.8c6.1-6.1,16.2-6.2,22.3,0
	c2.9,2.9,4.5,6.8,4.5,10.9c0,4.4-1.8,8.7-4.9,11.8c0,0-0.3,0.3-0.3,0.3c-5.6,5.2-8.9,7-12,6.3c-5.6-1.3-11.3,0.4-15.3,4.3l-0.7,0.7
	c-3.9,3.9-5.6,9.7-4.3,15.3C-228.3-210.8-230.3-207.3-236.1-201.4z"/>
<path fill="#C1C1C0" d="M-38-246v18.4c0,4.1-3.2,7.6-7.3,7.6h-79.4c-4.1,0-7.3-3.4-7.3-7.6V-246h-0.3c-4.1,0-7.7,3.1-7.7,7.2v13.1
	c0,8.3,7.1,14.7,15.3,14.7h79.4c8.3,0,15.3-6.4,15.3-14.7v-13.1c0-4.1-3.6-7.2-7.7-7.2H-38z"/>
<path fill="none" stroke="#3D3D3D" stroke-width="2" stroke-linecap="square" stroke-linejoin="round" stroke-miterlimit="10" d="
	M-38-246v18.4c0,4.1-3.2,7.6-7.3,7.6h-79.4c-4.1,0-7.3-3.4-7.3-7.6V-246h-0.3c-4.1,0-7.7,3.1-7.7,7.2v13.1c0,8.3,7.1,14.7,15.3,14.7
	h79.4c8.3,0,15.3-6.4,15.3-14.7v-13.1c0-4.1-3.6-7.2-7.7-7.2H-38z"/>
<line fill="none" stroke="#3D3D3D" stroke-width="2" stroke-linecap="square" stroke-linejoin="round" stroke-miterlimit="10" x1="-127" y1="-246" x2="-127" y2="-222"/>
<line fill="none" stroke="#3D3D3D" stroke-width="2" stroke-linecap="square" stroke-linejoin="round" stroke-miterlimit="10" x1="-121" y1="-246" x2="-121" y2="-222"/>
<line fill="none" stroke="#3D3D3D" stroke-width="2" stroke-linecap="square" stroke-linejoin="round" stroke-miterlimit="10" x1="-115" y1="-246" x2="-115" y2="-222"/>
<line fill="none" stroke="#3D3D3D" stroke-width="2" stroke-linecap="square" stroke-linejoin="round" stroke-miterlimit="10" x1="-109" y1="-246" x2="-109" y2="-222"/>
<line fill="none" stroke="#3D3D3D" stroke-width="2" stroke-linecap="square" stroke-linejoin="round" stroke-miterlimit="10" x1="-103" y1="-246" x2="-103" y2="-222"/>
<line fill="none" stroke="#3D3D3D" stroke-width="2" stroke-linecap="square" stroke-linejoin="round" stroke-miterlimit="10" x1="-97" y1="-246" x2="-97" y2="-222"/>
<line fill="none" stroke="#3D3D3D" stroke-width="2" stroke-linecap="square" stroke-linejoin="round" stroke-miterlimit="10" x1="-91" y1="-246" x2="-91" y2="-222"/>
<line fill="none" stroke="#3D3D3D" stroke-width="2" stroke-linecap="square" stroke-linejoin="round" stroke-miterlimit="10" x1="-85" y1="-246" x2="-85" y2="-222"/>
<line fill="none" stroke="#3D3D3D" stroke-width="2" stroke-linecap="square" stroke-linejoin="round" stroke-miterlimit="10" x1="-79" y1="-246" x2="-79" y2="-222"/>
<line fill="none" stroke="#3D3D3D" stroke-width="2" stroke-linecap="square" stroke-linejoin="round" stroke-miterlimit="10" x1="-73" y1="-246" x2="-73" y2="-222"/>
<line fill="none" stroke="#3D3D3D" stroke-width="2" stroke-linecap="square" stroke-linejoin="round" stroke-miterlimit="10" x1="-67" y1="-246" x2="-67" y2="-222"/>
<line fill="none" stroke="#3D3D3D" stroke-width="2" stroke-linecap="square" stroke-linejoin="round" stroke-miterlimit="10" x1="-61" y1="-246" x2="-61" y2="-222"/>
<line fill="none" stroke="#3D3D3D" stroke-width="2" stroke-linecap="square" stroke-linejoin="round" stroke-miterlimit="10" x1="-55" y1="-246" x2="-55" y2="-222"/>
<line fill="none" stroke="#3D3D3D" stroke-width="2" stroke-linecap="square" stroke-linejoin="round" stroke-miterlimit="10" x1="-49" y1="-246" x2="-49" y2="-222"/>
<line fill="none" stroke="#3D3D3D" stroke-width="2" stroke-linecap="square" stroke-linejoin="round" stroke-miterlimit="10" x1="-43" y1="-246" x2="-43" y2="-222"/>
<path fill="#FFFFFF" d="M65.6-261.3l1.6,79.9l-32.2,0l1.7-79.9c0.1-3.8,3.3-6.8,7.1-6.8l14.7,0C62.3-268.1,65.5-265.1,65.6-261.3z"
	/>
<path fill="none" stroke="#3D3D3D" stroke-width="2" stroke-linecap="round" stroke-linejoin="round" stroke-miterlimit="10" d="
	M65.6-261.3l1.6,79.9l-32.2,0l1.7-79.9c0.1-3.8,3.3-6.8,7.1-6.8l14.7,0C62.3-268.1,65.5-265.1,65.6-261.3z"/>
<line fill="none" stroke="#3D3D3D" stroke-width="2" stroke-linejoin="round" stroke-miterlimit="10" x1="36" y1="-189" x2="67" y2="-189"/>
<line fill="none" stroke="#3D3D3D" stroke-width="2" stroke-linecap="round" stroke-linejoin="round" stroke-miterlimit="10" x1="41" y1="-182" x2="41" y2="-189"/>
<line fill="none" stroke="#3D3D3D" stroke-width="2" stroke-linecap="round" stroke-linejoin="round" stroke-miterlimit="10" x1="46" y1="-182" x2="46" y2="-189"/>
<line fill="none" stroke="#3D3D3D" stroke-width="2" stroke-linecap="round" stroke-linejoin="round" stroke-miterlimit="10" x1="51" y1="-182" x2="51" y2="-189"/>
<line fill="none" stroke="#3D3D3D" stroke-width="2" stroke-linecap="round" stroke-linejoin="round" stroke-miterlimit="10" x1="56" y1="-182" x2="56" y2="-189"/>
<line fill="none" stroke="#3D3D3D" stroke-width="2" stroke-linecap="round" stroke-linejoin="round" stroke-miterlimit="10" x1="61" y1="-182" x2="61" y2="-189"/>
<path fill="#53AF80" d="M59-278.5v9.5H42v-9.5c0-1.9,2.5-3.5,4.5-3.5h8.7C57-282,59-280.5,59-278.5z"/>
<path fill="none" stroke="#3D3D3D" stroke-width="2" stroke-linecap="round" stroke-linejoin="round" stroke-miterlimit="10" d="
	M59-278.5v9.5H42v-9.5c0-1.9,2.5-3.5,4.5-3.5h8.7C57-282,59-280.5,59-278.5z"/>
<line fill="none" stroke="#3D3D3D" stroke-width="2" stroke-linejoin="round" stroke-miterlimit="10" x1="48" y1="-269" x2="48" y2="-278"/>
<line fill="none" stroke="#3D3D3D" stroke-width="2" stroke-linejoin="round" stroke-miterlimit="10" x1="53" y1="-269" x2="53" y2="-278"/>
<rect x="45" y="-255" fill="#8DCEA8" width="12" height="52"/>
<rect x="45" y="-255" fill="none" stroke="#3D3D3D" stroke-width="2" stroke-linejoin="round" stroke-miterlimit="10" width="12" height="52"/>
<rect x="90" y="-282" fill="#53AF80" width="4" height="100"/>
<rect x="90" y="-282" fill="none" stroke="#3D3D3D" stroke-width="2" stroke-linecap="round" stroke-linejoin="round" stroke-miterlimit="10" width="4" height="100"/>
<rect x="77" y="-281" fill="#FFFFFF" width="13" height="26"/>
<rect x="77" y="-281" fill="none" stroke="#3D3D3D" stroke-width="2" stroke-linecap="round" stroke-linejoin="round" stroke-miterlimit="10" width="13" height="26"/>
<line fill="none" stroke="#3D3D3D" stroke-width="2" stroke-linecap="square" stroke-linejoin="round" stroke-miterlimit="10" x1="77" y1="-260" x2="85" y2="-260"/>
<line fill="none" stroke="#3D3D3D" stroke-width="2" stroke-linecap="square" stroke-linejoin="round" stroke-miterlimit="10" x1="77" y1="-265" x2="85" y2="-265"/>
<line fill="none" stroke="#3D3D3D" stroke-width="2" stroke-linecap="square" stroke-linejoin="round" stroke-miterlimit="10" x1="77" y1="-270" x2="85" y2="-270"/>
<line fill="none" stroke="#3D3D3D" stroke-width="2" stroke-linecap="square" stroke-linejoin="round" stroke-miterlimit="10" x1="77" y1="-275" x2="85" y2="-275"/>
<polygon fill="#FFFFFF" points="191.9,-178 272,-178 272,-280 191.9,-280 172.2,-288.4 152.5,-280 152.6,-177.9 172.2,-186.4 "/>
<polygon fill="#E2E2E2" points="172,-288.4 172,-186.4 192,-177.9 192,-280 "/>
<path fill="#C1C1C0" d="M153-256c0,1,1.9,0,1.9,0s1.4-0.9,2.6-2.3c1.2-1.4,1.2-0.5,2.1-1.4c0.9-0.9,0.9-1.4,2.1-2.3
	c1.2-1,1.6-1.1,3.5-1.9s1.2-1.4,2.6-2.4c1.4-1,2.6,1.7,4.4,2.2c1.9,0.5,1.4,1.2,2.7,2.1c1.3,0.9,3.3,0.7,4.8,1
	c1.4,0.2,4.2,2.6,5.9,2.8s4.7-1.9,6.3-3c1.6-1.2,4.2-5.4,4.4-6.6c0,0,3.3-5.6,3.7-6.5l3-5.6h-8.4l-0.9,5.6c-0.5,0.9-1.9,5.4-1.9,5.4
	s-2.1,2.1-3,2.6c-0.9,0.5-2.6,1.6-4.7,2.1c-2.1,0.5-3-0.7-4.2-1.2c-1.2-0.5-3.5-2.3-5-3c-1.5-0.7-2.7-2.6-2.7-3.5
	c0-0.9-2.6-0.9-3.5-0.8s-2.6,1.3-3.5,2s-3.7,1.4-4.4,2.1c-0.7,0.7-3.5,3.7-4.2,5.6s-3.5,1.2-3.5,0C153-264.3,153-256,153-256z"/>
<path fill="#C1C1C0" d="M154.9-223.2c2.3-0.8,7,5.5,8.9,6.9c1.9,1.4,8.4,8.7,8.4,8.7s3.7,0.2,5.6,3.3c1.9,3,8,0.7,9.4,1.4
	c1.4,0.7,4.7,4.4,4.7,4.4s7-7,10.3-9.1c3.3-2.1,4.7-3,7-3.7c2.3-0.7,9.8-1.2,11.7,0c1.9,1.2,9.4,2.1,10.8,0.4
	c1.4-1.6,9.8,1.6,13.3,3c3.5,1.4,5.4,3.3,6.8,4.9c1.4,1.7,17.1,10,17.1,10c1.1,0.6,3.1,3.7,3.1,3.7s0-16.2,0-16.9
	c0-0.7-1.9-1.2-3.1-1.9c0,0-5.5-5.6-8.3-7.5c-2.8-1.9-5.1-5.2-8.4-7.8c-3.3-2.7-8.9-0.1-14.5,0s-9.4-1.5-12.6-7.3
	c-3.3-5.8-4.2-6.4-4.2-10.6c0-4.2,2.8-6.6,5.2-10.6c2.3-4.1,1.4-4.8,1.9-9.8c0.5-5,5.6-11.4,5.6-11.4c1.2-1.6,7.7-7,7.7-7h-26.1
	l-0.3,5.6c0,2.8-1.9,14.7-3.3,17.4c-1.4,2.7-3.3,1.6-2.8,6.9c0.5,5.2,1.8,6.4,3,11.4c1.2,5,2.1,8.8,3.1,10.7s-0.5,6.2,0,7.1
	c0.5,0.9-2.1,3.2-2.9,4.6c-0.8,1.4-10,2.3-9.7,3.5s-4,4.7-4.9,4.9c-0.9,0.2-5.4,3-5.4,3s-2.1-1.2-3.3-1.6c-1.2-0.5-1.6-0.5-2.8,0.2
	c-1.2,0.7-0.9,0.9-2.8,0.2c-1.9-0.7-1.9,0-3.3-1.9c-1.4-1.9-2.6-1.5-3.7-2.2c-1.2-0.6-1.4-1.6-2.6-1.6s-4.7-4.7-5.6-5.6
	s-6.1-6.6-7.3-7c-1.2-0.5-2.3-0.7-3.3-1.2c-0.9-0.5-3.7-1.2-3.7-1.2S152.5-222.4,154.9-223.2z"/>
<polygon fill="none" stroke="#3D3D3D" stroke-width="2" stroke-linecap="round" stroke-linejoin="round" stroke-miterlimit="10" points="
	191.9,-178 272,-178 272,-280 191.9,-280 172.2,-288.4 152.5,-280 152.6,-177.9 172.2,-186.4 "/>
<line fill="none" stroke="#3D3D3D" stroke-width="2" stroke-linecap="square" stroke-linejoin="round" stroke-miterlimit="10" stroke-dasharray="5" x1="172" y1="-282" x2="172" y2="-189"/>
<line fill="none" stroke="#3D3D3D" stroke-width="2" stroke-linecap="square" stroke-linejoin="round" stroke-miterlimit="10" stroke-dasharray="5" x1="192" y1="-274" x2="192" y2="-182"/>
<path fill="none" stroke="#3D3D3D" stroke-width="2" stroke-linecap="round" stroke-linejoin="round" stroke-miterlimit="10" d="
	M237.1-276.5c0,0-8.7,7.5-9.2,14.9c-0.3,5,0.5,5.7-1.9,9.8c-2.3,4.1-5.2,6.4-5.2,10.6c0,4.2,0.9,4.8,4.2,10.6
	c3.3,5.8,7,7.5,12.6,7.3s11.2-2.7,14.5,0c3.3,2.7,5.6,5.9,8.4,7.8c2.8,1.9,8.4,7.5,8.4,7.5"/>
<path fill="none" stroke="#3D3D3D" stroke-width="2" stroke-linecap="round" stroke-linejoin="round" stroke-miterlimit="10" d="
	M269.1-192.9c0,0-15.9-8.4-17.3-10c-1.4-1.7-3.3-3.5-6.8-4.9c-3.5-1.4-11.9-4.7-13.3-3c-1.4,1.6-8.9,0.7-10.8-0.4
	c-1.9-1.2-9.4-0.7-11.7,0c-2.3,0.7-3.7,1.6-7,3.7c-3.3,2.1-10.3,9.1-10.3,9.1s-3.3-3.7-4.7-4.4c-1.4-0.7-7.5,1.6-9.4-1.4
	c-1.9-3-5.6-3.3-5.6-3.3s-6.6-7.3-8.4-8.7c-1.9-1.4-6.6-7.7-8.9-6.9"/>
<path fill="none" stroke="#3D3D3D" stroke-width="2" stroke-linecap="round" stroke-linejoin="round" stroke-miterlimit="10" d="
	M214.9-276.5c0,2.8-2,16.7-3.4,19.5c-1.4,2.7-3.3,1.6-2.8,6.9c0.5,5.2,1.8,6.4,3,11.4c1.2,5,2.1,8.8,3.1,10.7s-0.5,6.2,0,7.1
	c0.5,0.9-2.1,3.2-2.9,4.6c-0.8,1.4-10,2.3-9.7,3.5s-4,4.7-4.9,4.9c-0.9,0.2-5.4,3-5.4,3s-2.1-1.2-3.3-1.6c-1.2-0.5-1.6-0.5-2.8,0.2
	c-1.2,0.7-0.9,0.9-2.8,0.2c-1.9-0.7-1.9,0-3.3-1.9c-1.4-1.9-2.6-1.5-3.7-2.2c-1.2-0.6-1.4-1.6-2.6-1.6s-4.7-4.7-5.6-5.6
	s-6.1-6.6-7.3-7c-1.2-0.5-2.3-0.7-3.3-1.2"/>
<path fill="none" stroke="#3D3D3D" stroke-width="2" stroke-linecap="round" stroke-linejoin="round" stroke-miterlimit="10" d="
	M156.3-263.2c0.7-1.9,3.7-4.9,4.4-5.6c0.7-0.7,3.5-1.4,4.4-2.1s2.6-1.9,3.5-2s3.5-0.1,3.5,0.8c0,0.9,1.3,2.8,2.7,3.5
	c1.5,0.7,3.8,2.6,5,3s2.1,1.6,4.2,1.2c2.1-0.5,3.7-1.6,4.7-2.1c0.9-0.5,3-2.6,3-2.6s1.7-6.5,2.2-7.5"/>
<path fill="none" stroke="#3D3D3D" stroke-width="2" stroke-linecap="round" stroke-linejoin="round" stroke-miterlimit="10" d="
	M201.2-276.5c-0.5,0.9-4.9,8.6-4.9,8.6c-0.2,1.2-2.8,5.4-4.4,6.6c-1.6,1.2-4.7,3.3-6.3,3s-4.4-2.6-5.9-2.8c-1.4-0.2-3.4,0-4.8-1
	c-1.3-0.9-0.9-1.6-2.7-2.1s-3-3.3-4.4-2.2c-1.4,1-0.7,1.7-2.6,2.4s-2.3,0.9-3.5,1.9c-1.2,1-1.2,1.4-2.1,2.4c-0.9,0.9-0.9,0-2.1,1.4
	c-1.2,1.4-2.6,2.3-2.6,2.3"/>
<path fill="#53AF80" d="M262.1-236c0,1.5-1.3,2.7-2.8,2.7s-2.8-1.2-2.8-2.7s1.3-6.5,2.8-6.5S262.1-237.5,262.1-236z"/>
<path fill="none" stroke="#3D3D3D" stroke-width="2" stroke-linecap="round" stroke-linejoin="round" stroke-miterlimit="10" d="
	M262.1-236c0,1.5-1.3,2.7-2.8,2.7s-2.8-1.2-2.8-2.7s1.3-6.5,2.8-6.5S262.1-237.5,262.1-236z"/>
<line fill="none" stroke="#3D3D3D" stroke-width="2" stroke-linecap="round" stroke-linejoin="round" stroke-miterlimit="10" x1="259" y1="-236" x2="259" y2="-231"/>
<path fill="#53AF80" d="M252.7-236.9c0,1.5-1.3,2.7-2.8,2.7s-2.8-1.2-2.8-2.7s1.3-6.5,2.8-6.5S252.7-238.4,252.7-236.9z"/>
<path fill="none" stroke="#3D3D3D" stroke-width="2" stroke-linecap="round" stroke-linejoin="round" stroke-miterlimit="10" d="
	M252.7-236.9c0,1.5-1.3,2.7-2.8,2.7s-2.8-1.2-2.8-2.7s1.3-6.5,2.8-6.5S252.7-238.4,252.7-236.9z"/>
<line fill="none" stroke="#3D3D3D" stroke-width="2" stroke-linecap="round" stroke-linejoin="round" stroke-miterlimit="10" x1="250" y1="-237" x2="250" y2="-232"/>
<path fill="#53AF80" d="M258.4-249.1c0,1.5-1.3,2.7-2.8,2.7c-1.6,0-2.8-1.2-2.8-2.7s1.3-6.5,2.8-6.5
	C257.1-255.6,258.4-250.6,258.4-249.1z"/>
<path fill="none" stroke="#3D3D3D" stroke-width="2" stroke-linecap="round" stroke-linejoin="round" stroke-miterlimit="10" d="
	M258.4-249.1c0,1.5-1.3,2.7-2.8,2.7c-1.6,0-2.8-1.2-2.8-2.7s1.3-6.5,2.8-6.5C257.1-255.6,258.4-250.6,258.4-249.1z"/>
<line fill="none" stroke="#3D3D3D" stroke-width="2" stroke-linecap="round" stroke-linejoin="round" stroke-miterlimit="10" x1="256" y1="-249" x2="256" y2="-244"/>
<path fill="#53AF80" d="M243.4-188.2c0,1.5-1.3,2.7-2.8,2.7s-2.8-1.2-2.8-2.7s1.3-6.5,2.8-6.5S243.4-189.7,243.4-188.2z"/>
<path fill="none" stroke="#3D3D3D" stroke-width="2" stroke-linecap="round" stroke-linejoin="round" stroke-miterlimit="10" d="
	M243.4-188.2c0,1.5-1.3,2.7-2.8,2.7s-2.8-1.2-2.8-2.7s1.3-6.5,2.8-6.5S243.4-189.7,243.4-188.2z"/>
<line fill="none" stroke="#3D3D3D" stroke-width="2" stroke-linecap="round" stroke-linejoin="round" stroke-miterlimit="10" x1="241" y1="-188" x2="241" y2="-184"/>
<path fill="#53AF80" d="M225.6-193.9c0,1.5-1.3,2.7-2.8,2.7c-1.6,0-2.8-1.2-2.8-2.7s1.3-6.5,2.8-6.5
	C224.3-200.3,225.6-195.4,225.6-193.9z"/>
<path fill="none" stroke="#3D3D3D" stroke-width="2" stroke-linecap="round" stroke-linejoin="round" stroke-miterlimit="10" d="
	M225.6-193.9c0,1.5-1.3,2.7-2.8,2.7c-1.6,0-2.8-1.2-2.8-2.7s1.3-6.5,2.8-6.5C224.3-200.3,225.6-195.4,225.6-193.9z"/>
<line fill="none" stroke="#3D3D3D" stroke-width="2" stroke-linecap="round" stroke-linejoin="round" stroke-miterlimit="10" x1="223" y1="-194" x2="223" y2="-189"/>
<path fill="#53AF80" d="M208.7-225.7c0,1.5-1.3,2.7-2.8,2.7s-2.8-1.2-2.8-2.7s1.3-6.5,2.8-6.5S208.7-227.2,208.7-225.7z"/>
<path fill="none" stroke="#3D3D3D" stroke-width="2" stroke-linecap="round" stroke-linejoin="round" stroke-miterlimit="10" d="
	M208.7-225.7c0,1.5-1.3,2.7-2.8,2.7s-2.8-1.2-2.8-2.7s1.3-6.5,2.8-6.5S208.7-227.2,208.7-225.7z"/>
<line fill="none" stroke="#3D3D3D" stroke-width="2" stroke-linecap="round" stroke-linejoin="round" stroke-miterlimit="10" x1="206" y1="-226" x2="206" y2="-221"/>
<path fill="#53AF80" d="M208.7-265c0,1.5-1.3,2.7-2.8,2.7s-2.8-1.2-2.8-2.7s1.3-6.5,2.8-6.5S208.7-266.5,208.7-265z"/>
<path fill="none" stroke="#3D3D3D" stroke-width="2" stroke-linecap="round" stroke-linejoin="round" stroke-miterlimit="10" d="
	M208.7-265c0,1.5-1.3,2.7-2.8,2.7s-2.8-1.2-2.8-2.7s1.3-6.5,2.8-6.5S208.7-266.5,208.7-265z"/>
<line fill="none" stroke="#3D3D3D" stroke-width="2" stroke-linecap="round" stroke-linejoin="round" stroke-miterlimit="10" x1="206" y1="-265" x2="206" y2="-260"/>
<path fill="#53AF80" d="M182.7-216.3c0,1.5-0.9,2.7-2.1,2.7s-2.1-1.2-2.1-2.7s0.9-6.5,2.1-6.5S182.7-217.8,182.7-216.3z"/>
<path fill="none" stroke="#3D3D3D" stroke-width="2" stroke-linecap="round" stroke-linejoin="round" stroke-miterlimit="10" d="
	M182.7-216.3c0,1.5-0.9,2.7-2.1,2.7s-2.1-1.2-2.1-2.7s0.9-6.5,2.1-6.5S182.7-217.8,182.7-216.3z"/>
<line fill="none" stroke="#3D3D3D" stroke-width="2" stroke-linecap="round" stroke-linejoin="round" stroke-miterlimit="10" x1="181" y1="-216" x2="181" y2="-212"/>
<path fill="#53AF80" d="M162.1-207.9c0,1.5-0.9,2.7-2.1,2.7c-1.2,0-2.1-1.2-2.1-2.7s0.9-6.5,2.1-6.5
	C161.2-214.4,162.1-209.4,162.1-207.9z"/>
<path fill="none" stroke="#3D3D3D" stroke-width="2" stroke-linecap="round" stroke-linejoin="round" stroke-miterlimit="10" d="
	M162.1-207.9c0,1.5-0.9,2.7-2.1,2.7c-1.2,0-2.1-1.2-2.1-2.7s0.9-6.5,2.1-6.5C161.2-214.4,162.1-209.4,162.1-207.9z"/>
<line fill="none" stroke="#3D3D3D" stroke-width="2" stroke-linecap="round" stroke-linejoin="round" stroke-miterlimit="10" x1="160" y1="-208" x2="160" y2="-203"/>
<line fill="none" stroke="#3D3D3D" stroke-width="2" stroke-miterlimit="10" x1="245" y1="-274" x2="268" y2="-274"/>
<line fill="none" stroke="#3D3D3D" stroke-width="2" stroke-miterlimit="10" x1="246" y1="-274" x2="246" y2="-272"/>
<line fill="none" stroke="#3D3D3D" stroke-width="2" stroke-miterlimit="10" x1="249" y1="-274" x2="249" y2="-272"/>
<line fill="none" stroke="#3D3D3D" stroke-width="2" stroke-miterlimit="10" x1="252" y1="-274" x2="252" y2="-272"/>
<line fill="none" stroke="#3D3D3D" stroke-width="2" stroke-miterlimit="10" x1="255" y1="-274" x2="255" y2="-272"/>
<line fill="none" stroke="#3D3D3D" stroke-width="2" stroke-miterlimit="10" x1="257" y1="-274" x2="257" y2="-272"/>
<line fill="none" stroke="#3D3D3D" stroke-width="2" stroke-miterlimit="10" x1="260" y1="-274" x2="260" y2="-272"/>
<line fill="none" stroke="#3D3D3D" stroke-width="2" stroke-miterlimit="10" x1="263" y1="-274" x2="263" y2="-272"/>
<line fill="none" stroke="#3D3D3D" stroke-width="2" stroke-miterlimit="10" x1="266" y1="-274" x2="266" y2="-272"/>
<circle fill="none" stroke="#3D3D3D" stroke-width="2" stroke-miterlimit="10" cx="264" cy="-266" r="3.1"/>
<line fill="none" stroke="#3D3D3D" stroke-width="2" stroke-miterlimit="10" x1="264" y1="-269" x2="264" y2="-263"/>
<line fill="none" stroke="#3D3D3D" stroke-width="2" stroke-miterlimit="10" x1="261" y1="-266" x2="267" y2="-266"/>
<path fill="#C1C1C0" d="M383-191c0,3.8-3.1,7-7,7H334c-3.8,0-7-3.1-7-7V-267c0-3.8,3.1-7,7-7H376c3.8,0,7,3.1,7,7V-191z"/>
<path fill="none" stroke="#3D3D3D" stroke-width="2" stroke-linejoin="round" stroke-miterlimit="10" d="M383-191c0,3.8-3.1,7-7,7
	H334c-3.8,0-7-3.1-7-7V-267c0-3.8,3.1-7,7-7H376c3.8,0,7,3.1,7,7V-191z"/>
<path fill="#C1C1C0" d="M388-191c0,3.8-3.1,7-7,7H339c-3.8,0-7-3.1-7-7V-267c0-3.8,3.1-7,7-7H381c3.8,0,7,3.1,7,7V-191z"/>
<path fill="none" stroke="#3D3D3D" stroke-width="2" stroke-linejoin="round" stroke-miterlimit="10" d="M388-191c0,3.8-3.1,7-7,7
	H339c-3.8,0-7-3.1-7-7V-267c0-3.8,3.1-7,7-7H381c3.8,0,7,3.1,7,7V-191z"/>
<rect x="339" y="-259" fill="#FFFFFF" width="42" height="60"/>
<rect x="339" y="-259" fill="none" stroke="#3D3D3D" stroke-width="2" stroke-linejoin="round" stroke-miterlimit="10" width="42" height="60"/>
<line fill="none" stroke="#3D3D3D" stroke-width="2" stroke-linejoin="round" stroke-miterlimit="10" x1="351" y1="-266" x2="369" y2="-266"/>
<circle fill="#3D3D3D" cx="360.1" cy="-191.6" r="3.4"/>
<path fill="#53AF80" d="M399-36h-70.9c-2.2,0-4.1-1.3-4.1-3.6v-84.9c0-2.2,1.9-3.6,4.1-3.6H399V-36z"/>
<path fill="none" stroke="#3D3D3D" stroke-width="2" stroke-miterlimit="10" d="M399-36h-70.9c-2.2,0-4.1-1.3-4.1-3.6v-84.9
	c0-2.2,1.9-3.6,4.1-3.6H399V-36z"/>
<path fill="#8DCEA8" d="M401-36h-68.8c-2.2,0-4.2-1.3-4.2-3.6v-84.9c0-2.2,2-3.6,4.2-3.6H401V-36z"/>
<path fill="none" stroke="#3D3D3D" stroke-width="2" stroke-miterlimit="10" d="M401-36h-68.8c-2.2,0-4.2-1.3-4.2-3.6v-84.9
	c0-2.2,2-3.6,4.2-3.6H401V-36z"/>
<circle fill="none" stroke="#3D3D3D" stroke-width="2" stroke-miterlimit="10" cx="364.2" cy="-93.7" r="21.5"/>
<line fill="none" stroke="#3D3D3D" stroke-width="2" stroke-miterlimit="10" x1="365" y1="-116" x2="365" y2="-72"/>
<path fill="none" stroke="#3D3D3D" stroke-width="2" stroke-miterlimit="10" d="M370.1-114.4c0,0,6.3,8.2,6.3,20.7
	s-5.3,20.4-5.3,20.4"/>
<path fill="none" stroke="#3D3D3D" stroke-width="2" stroke-miterlimit="10" d="M359.3-114.4c0,0-6.3,8.2-6.3,20.7
	s5.3,20.4,5.3,20.4"/>
<line fill="none" stroke="#3D3D3D" stroke-width="2" stroke-miterlimit="10" x1="342" y1="-94" x2="386" y2="-94"/>
<line fill="none" stroke="#3D3D3D" stroke-width="2" stroke-miterlimit="10" x1="345" y1="-104" x2="383" y2="-104"/>
<line fill="none" stroke="#3D3D3D" stroke-width="2" stroke-miterlimit="10" x1="345" y1="-84" x2="383" y2="-84"/>
<line fill="none" stroke="#3D3D3D" stroke-width="2" stroke-miterlimit="10" x1="342" y1="-58" x2="387" y2="-58"/>
<path fill="#FFFFFF" d="M179.6-43c-8.2,0-14.9-6.8-14.9-15s6.7-15,14.9-15h51.3c8.2,0,14.9,6.8,14.9,15s-6.7,15-14.9,15H179.6z"/>
<path fill="none" stroke="#3D3D3D" stroke-width="2" stroke-miterlimit="10" d="M179.6-43c-8.2,0-14.9-6.8-14.9-15s6.7-15,14.9-15
	h51.3c8.2,0,14.9,6.8,14.9,15s-6.7,15-14.9,15H179.6z"/>
<path fill="#FFFFFF" d="M173-66.1V-106h10v5.1c0,0,9,2,9.5,9c-0.5,0.5-9.5,0-9.5,0v9.9h6v-4h4v13.5L173-66.1z"/>
<path fill="none" stroke="#3D3D3D" stroke-width="2" stroke-linejoin="round" stroke-miterlimit="10" d="M173-66.1V-106h10v5.1
	c0,0,9,2,9.5,9c-0.5,0.5-9.5,0-9.5,0v9.9h6v-4h4v13.5L173-66.1z"/>
<path fill="#FFFFFF" d="M183.6-43c-8.2,0-14.9-6.8-14.9-15s6.7-15,14.9-15h51.3c8.2,0,14.9,6.8,14.9,15s-6.7,15-14.9,15H183.6z"/>
<path fill="none" stroke="#3D3D3D" stroke-width="2" stroke-miterlimit="10" d="M183.6-43c-8.2,0-14.9-6.8-14.9-15s6.7-15,14.9-15
	h51.3c8.2,0,14.9,6.8,14.9,15s-6.7,15-14.9,15H183.6z"/>
<path fill="#FFFFFF" d="M187.6-43c-8.2,0-14.9-6.8-14.9-15s6.7-15,14.9-15h51.3c8.2,0,14.9,6.8,14.9,15s-6.7,15-14.9,15H187.6z"/>
<path fill="none" stroke="#3D3D3D" stroke-width="2" stroke-miterlimit="10" d="M187.6-43c-8.2,0-14.9-6.8-14.9-15s6.7-15,14.9-15
	h51.3c8.2,0,14.9,6.8,14.9,15s-6.7,15-14.9,15H187.6z"/>
<path fill="#FFFFFF" d="M253-69v-51.3c0,0-12,5-12,18.4s0,28.9,0,28.9"/>
<path fill="none" stroke="#3D3D3D" stroke-width="2" stroke-linejoin="round" stroke-miterlimit="10" d="M253-69v-51.3
	c0,0-12,5-12,18.4s0,28.9,0,28.9"/>
<path fill="#FFFFFF" d="M182.9-72.5c0,0,25.5-17.7,27.4-18.9s7.3-0.7,9.8,0c-0.8,5.2-2.6,7.5-5.9,9.7c-2.6,1.8-22.9,15.2-22.9,15.2"
	/>
<path fill="none" stroke="#3D3D3D" stroke-width="2" stroke-linejoin="round" stroke-miterlimit="10" d="M182.9-72.5
	c0,0,25.5-17.7,27.4-18.9s7.3-0.7,9.8,0c-0.8,5.2-2.6,7.5-5.9,9.7c-2.6,1.8-22.9,15.2-22.9,15.2"/>
<path fill="#53AF80" d="M191.5-43c-8.2,0-14.9-6.8-14.9-15s6.7-15,14.9-15h51.3c8.2,0,14.9,6.8,14.9,15s-6.7,15-14.9,15H191.5z"/>
<path fill="none" stroke="#3D3D3D" stroke-width="2" stroke-miterlimit="10" d="M191.5-43c-8.2,0-14.9-6.8-14.9-15s6.7-15,14.9-15
	h51.3c8.2,0,14.9,6.8,14.9,15s-6.7,15-14.9,15H191.5z"/>
<polygon fill="#FFFFFF" points="227,-61 221,-61 221,-67 215,-67 215,-61 209,-61 209,-55 215,-55 215,-49 221,-49 221,-55 227,-55 
	"/>
<path fill="#FFFFFF" d="M84-34.3c0,1.2-1,2.3-2.3,2.3H45.3C44-32,43-33,43-34.3v-7.5c0-1.2,1-2.3,2.3-2.3h36.5c1.2,0,2.3,1,2.3,2.3
	V-34.3z"/>
<path fill="#FFFFFF" d="M84-46.3c0,1.2-1,2.3-2.3,2.3H45.3C44-44,43-45,43-46.3v-7.5c0-1.2,1-2.3,2.3-2.3h36.5c1.2,0,2.3,1,2.3,2.3
	V-46.3z"/>
<path fill="#FFFFFF" d="M84-58.3c0,1.2-1,2.3-2.3,2.3H45.3C44-56,43-57,43-58.3v-7.5c0-1.2,1-2.3,2.3-2.3h36.5c1.2,0,2.3,1,2.3,2.3
	V-58.3z"/>
<path fill="#FFFFFF" d="M84-70.3c0,1.2-1,2.3-2.3,2.3H45.3C44-68,43-69,43-70.3v-7.5c0-1.2,1-2.3,2.3-2.3h36.5c1.2,0,2.3,1,2.3,2.3
	V-70.3z"/>
<path fill="#FFFFFF" d="M84-82.3c0,1.2-1,2.3-2.3,2.3H45.3C44-80,43-81,43-82.3v-7.5c0-1.2,1-2.3,2.3-2.3h36.5c1.2,0,2.3,1,2.3,2.3
	V-82.3z"/>
<path fill="none" stroke="#3D3D3D" stroke-width="2" stroke-miterlimit="10" d="M84-34.3c0,1.2-1,2.3-2.3,2.3H45.3
	C44-32,43-33,43-34.3v-7.5c0-1.2,1-2.3,2.3-2.3h36.5c1.2,0,2.3,1,2.3,2.3V-34.3z"/>
<path fill="none" stroke="#3D3D3D" stroke-width="2" stroke-miterlimit="10" d="M84-46.3c0,1.2-1,2.3-2.3,2.3H45.3
	C44-44,43-45,43-46.3v-7.5c0-1.2,1-2.3,2.3-2.3h36.5c1.2,0,2.3,1,2.3,2.3V-46.3z"/>
<path fill="none" stroke="#3D3D3D" stroke-width="2" stroke-miterlimit="10" d="M84-58.3c0,1.2-1,2.3-2.3,2.3H45.3
	C44-56,43-57,43-58.3v-7.5c0-1.2,1-2.3,2.3-2.3h36.5c1.2,0,2.3,1,2.3,2.3V-58.3z"/>
<path fill="none" stroke="#3D3D3D" stroke-width="2" stroke-miterlimit="10" d="M84-70.3c0,1.2-1,2.3-2.3,2.3H45.3
	C44-68,43-69,43-70.3v-7.5c0-1.2,1-2.3,2.3-2.3h36.5c1.2,0,2.3,1,2.3,2.3V-70.3z"/>
<path fill="none" stroke="#3D3D3D" stroke-width="2" stroke-miterlimit="10" d="M84-82.3c0,1.2-1,2.3-2.3,2.3H45.3
	C44-80,43-81,43-82.3v-7.5c0-1.2,1-2.3,2.3-2.3h36.5c1.2,0,2.3,1,2.3,2.3V-82.3z"/>
<rect x="57" y="-127" fill="none" stroke="#3D3D3D" stroke-width="2" stroke-miterlimit="10" width="12" height="5"/>
<path fill="#E2E2E2" d="M83-102.1v7.9c0,1.2-0.7,2.2-1.9,2.2H44.9c-1.2,0-1.9-1-1.9-2.2v-7.9c0-1.2,10.9-19.9,12.1-19.9h15.8
	C72.1-122,83-103.4,83-102.1z"/>
<path fill="none" stroke="#3D3D3D" stroke-width="2" stroke-miterlimit="10" d="M83-102.1v7.9c0,1.2-0.7,2.2-1.9,2.2H44.9
	c-1.2,0-1.9-1-1.9-2.2v-7.9c0-1.2,10.9-19.9,12.1-19.9h15.8C72.1-122,83-103.4,83-102.1z"/>
<path fill="none" stroke="#3D3D3D" stroke-width="2" stroke-miterlimit="10" d="M65-32H51.7c-1.2,0-2.7-0.9-2.7-2.1V-42
	c0-1.2,1.5-2,2.7-2H65"/>
<path fill="none" stroke="#3D3D3D" stroke-width="2" stroke-miterlimit="10" d="M64-44H51.5c-1.2,0-2.5-1.1-2.5-2.2v-7.4
	c0-1.2,1.3-2.3,2.5-2.3H64"/>
<path fill="none" stroke="#3D3D3D" stroke-width="2" stroke-miterlimit="10" d="M65-56H51.7c-1.2,0-2.7-0.7-2.7-2v-7.9
	c0-1.2,1.5-2.1,2.7-2.1H65"/>
<path fill="none" stroke="#3D3D3D" stroke-width="2" stroke-miterlimit="10" d="M65-68H51.7c-1.2,0-2.7-0.7-2.7-2v-7.9
	c0-1.2,1.5-2.1,2.7-2.1H65"/>
<path fill="none" stroke="#3D3D3D" stroke-width="2" stroke-miterlimit="10" d="M65-80H51.7c-1.2,0-2.7-0.6-2.7-1.8v-7.9
	c0-1.2,1.5-2.3,2.7-2.3H65"/>
<path fill="none" stroke="#3D3D3D" stroke-width="2" stroke-miterlimit="10" d="M61-92h13.3c1.2,0,2.7-0.9,2.7-2.1v-7.7
	c0-1.2-5.6-19.9-6.9-19.9"/>
<path fill="none" stroke="#3D3D3D" stroke-width="2" stroke-miterlimit="10" d="M65-92H51.7c-1.2,0-2.7-0.9-2.7-2.1v-7.7
	c0-1.2,5.6-19.9,6.9-19.9"/>
<line fill="none" stroke="#3D3D3D" stroke-width="2" stroke-miterlimit="10" x1="51" y1="-122" x2="75" y2="-122"/>
<path fill="#8DCEA8" d="M68.6-137H57.4c-2.5,0-4.4,1.9-4.4,4.4v6.6h20v-6.6C73-135.1,71.1-137,68.6-137z"/>
<path fill="none" stroke="#3D3D3D" stroke-width="2" stroke-miterlimit="10" d="M68.6-137H57.4c-2.5,0-4.4,1.9-4.4,4.4v6.6h20v-6.6
	C73-135.1,71.1-137,68.6-137z"/>
<line fill="none" stroke="#3D3D3D" stroke-width="2" stroke-miterlimit="10" x1="56" y1="-126" x2="56" y2="-130"/>
<line fill="none" stroke="#3D3D3D" stroke-width="2" stroke-miterlimit="10" x1="61" y1="-126" x2="61" y2="-130"/>
<line fill="none" stroke="#3D3D3D" stroke-width="2" stroke-miterlimit="10" x1="65" y1="-126" x2="65" y2="-130"/>
<line fill="none" stroke="#3D3D3D" stroke-width="2" stroke-miterlimit="10" x1="70" y1="-126" x2="70" y2="-130"/>
<path fill="#8DCEA8" d="M-88-29c-21.7,0-39.3-17.3-39.3-39s17.6-39,39.3-39h11v78H-88z"/>
<path fill="none" stroke="#3D3D3D" stroke-width="2" stroke-miterlimit="10" d="M-88-29c-21.7,0-39.3-17.3-39.3-39s17.6-39,39.3-39
	h8v78H-88z"/>
<circle fill="#C1C1C0" cx="-80" cy="-68" r="39.3"/>
<circle fill="none" stroke="#3D3D3D" stroke-width="2" stroke-miterlimit="10" cx="-80" cy="-68" r="39.3"/>
<circle fill="#FFFFFF" cx="-80" cy="-68" r="30.2"/>
<circle fill="none" stroke="#3D3D3D" stroke-width="2" stroke-miterlimit="10" cx="-80" cy="-68" r="31.3"/>
<line fill="none" stroke="#3D3D3D" stroke-width="2" stroke-miterlimit="10" x1="-84" y1="-107" x2="-84" y2="-119"/>
<g>
	<path fill="#3D3D3D" d="M-80-72.2c1.1,0,2.2,0.4,3,1.3c1.7,1.7,1.7,4.4,0,6c-2.6,2.6-13.2,10.2-17.3,11.3c0.4-1.3,1.6-3.9,4.5-8.3
		c2.7-4,5.7-7.9,6.8-9C-82.3-71.8-81.2-72.2-80-72.2 M-80-74.2c-1.6,0-3.2,0.6-4.4,1.8c-2.4,2.4-14.1,18.1-11.6,20.5
		c0.2,0.2,0.6,0.3,1,0.3c4.3,0,17.3-9.8,19.5-12c2.4-2.4,2.4-6.4,0-8.9C-76.8-73.6-78.4-74.2-80-74.2L-80-74.2z"/>
</g>
<circle fill="none" stroke="#3D3D3D" stroke-width="2" stroke-miterlimit="10" cx="-84.4" cy="-124.9" r="12"/>
<path fill="#3D3D3D" d="M-75.6-63.5c-2.4,2.4-6.4,2.4-8.9,0c-2.4-2.4-2.4-6.4,0-8.9S-66.4-86.5-64-84C-61.5-81.6-73.2-66-75.6-63.5z
	"/>
<circle fill="#FFFFFF" cx="-80" cy="-68" r="2.9"/>
<line fill="none" stroke="#3D3D3D" stroke-width="2" stroke-miterlimit="10" x1="-80" y1="-99" x2="-80" y2="-92"/>
<line fill="none" stroke="#3D3D3D" stroke-width="2" stroke-miterlimit="10" x1="-80" y1="-44" x2="-80" y2="-37"/>
<line fill="none" stroke="#3D3D3D" stroke-width="2" stroke-miterlimit="10" x1="-111" y1="-68" x2="-104" y2="-68"/>
<line fill="none" stroke="#3D3D3D" stroke-width="2" stroke-miterlimit="10" x1="-56" y1="-68" x2="-49" y2="-68"/>
<path fill="#53AF80" d="M-281.5-57.3c0.5-1,60.9-55.9,68.1-60.6c7.2-4.7,17.6-3.2,27.5,4.5c9.8,7.6,6.9,9.5,5.9,11.5
	c-0.9,2-3.6,1.6-9.6-2.7s-13.3-11.2-17.7-10.5c-4.5,0.7-68.7,63.3-68.7,63.3"/>
<path fill="#53AF80" d="M-205.4-133.5c-1,0.5-55.9,60.9-60.6,68.1c-4.7,7.2-3.2,17.6,4.5,27.5c7.6,9.8,9.5,6.9,11.5,5.9
	c2-0.9,1.6-3.6-2.7-9.6c-4.2-5.9-11.2-13.3-10.5-17.7c0.7-4.5,63.3-68.7,63.3-68.7"/>
<ellipse transform="matrix(0.7071 -0.7071 0.7071 0.7071 11.6591 -181.4665)" fill="#C1C1C0" cx="-213.2" cy="-104.8" rx="22.6" ry="18.1"/>
<path fill="none" stroke="#3D3D3D" stroke-width="2" stroke-miterlimit="10" d="M-281.5-57.3c0.5-1,60.9-55.9,68.1-60.6
	c7.2-4.7,17.6-3.2,27.5,4.5c9.8,7.6,6.9,9.5,5.9,11.5c-0.9,2-3.6,1.6-9.6-2.7s-13.3-11.2-17.7-10.5c-4.5,0.7-68.7,63.3-68.7,63.3"/>
<ellipse transform="matrix(0.7071 -0.7071 0.7071 0.7071 -27.914 -197.8582)" fill="#C1C1C0" cx="-252.8" cy="-65.2" rx="22.6" ry="18.1"/>
<path fill="#C1C1C0" d="M-205.4-133.5c-1,0.5-55.9,60.9-60.6,68.1c-4.7,7.2-12.1,2.1-4.5,12s9.5,6.9,11.5,5.9c2-0.9,1.6-3.6-2.7-9.6
	c-4.2-5.9-2.3,2.2-1.6-2.2c0.7-4.5,63.3-68.7,63.3-68.7"/>
<path fill="none" stroke="#3D3D3D" stroke-width="2" stroke-miterlimit="10" d="M-205.4-133.5c-1,0.5-55.9,60.9-60.6,68.1
	c-4.7,7.2-3.2,17.6,4.5,27.5c7.6,9.8,9.5,6.9,11.5,5.9c2-0.9,1.6-3.6-2.7-9.6c-4.2-5.9-11.2-13.3-10.5-17.7
	c0.7-4.5,63.3-68.7,63.3-68.7"/>
<path fill="#8DCEA8" d="M-226.4-118.6c-7.7,8.7-10.7,19.1-16.2,24.6c-0.1,0.1-0.2,0.2-0.2,0.3c-0.1,0.1-0.2,0.2-0.3,0.2
	c-5.6,5.6-16,8.5-24.6,16.2s-14.9,21.1-14.9,21.1l5.4,5.4c0,0,2.2-3.2,5.2,0c5,5.4,16,10.8,21.2,8.8c5.2-2,19.2-13.7,19.6-23
	c0.4-9.3-8.7-21.3-6.7-23.3c0.1-0.1,0.2-0.2,0.2-0.3c0.1-0.1,0.2-0.1,0.3-0.2c2-2,14,7.1,23.3,6.7c9.3-0.4,21.1-14.4,23-19.6
	c2-5.2-3.3-16.2-8.8-21.2c-3.2-3,0-5.2,0-5.2l-5.4-5.4C-205.4-133.5-218.8-127.3-226.4-118.6z M-237.6-70.3
	c2.1,10.5-4.3,16.5-11.6,21.3c-7.3,4.8-14.7-1.4-19.2-5.8c-4.5-4.5-2.3-7.9-0.2-12.1c1.5-3.1,7.4-8.9,14.9-13.1
	C-246.4-84.3-239.7-80.8-237.6-70.3z M-198.2-100c-4.8,7.3-10.8,13.7-21.3,11.6c-10.5-2.1-14-8.8-9.8-16.2
	c4.2-7.4,10-13.4,13.1-14.9c4.3-2,7.7-4.2,12.1,0.2C-199.6-114.8-193.4-107.3-198.2-100z"/>
<path fill="none" stroke="#3D3D3D" stroke-width="2" stroke-miterlimit="10" d="M-226.4-118.6c-7.7,8.7-10.7,19.1-16.2,24.6
	c-0.1,0.1-0.2,0.2-0.2,0.3c-0.1,0.1-0.2,0.2-0.3,0.2c-5.6,5.6-16,8.5-24.6,16.2s-14.9,21.1-14.9,21.1l5.4,5.4c0,0,2.2-3.2,5.2,0
	c5,5.4,16,10.8,21.2,8.8c5.2-2,19.2-13.7,19.6-23c0.4-9.3-8.7-21.3-6.7-23.3c0.1-0.1,0.2-0.2,0.2-0.3c0.1-0.1,0.2-0.1,0.3-0.2
	c2-2,14,7.1,23.3,6.7c9.3-0.4,21.1-14.4,23-19.6c2-5.2-3.3-16.2-8.8-21.2c-3.2-3,0-5.2,0-5.2l-5.4-5.4
	C-205.4-133.5-218.8-127.3-226.4-118.6z M-237.6-70.3c2.1,10.5-4.3,16.5-11.6,21.3c-7.3,4.8-14.7-1.4-19.2-5.8
	c-4.5-4.5-2.3-7.9-0.2-12.1c1.5-3.1,7.4-8.9,14.9-13.1C-246.4-84.3-239.7-80.8-237.6-70.3z M-198.2-100
	c-4.8,7.3-10.8,13.7-21.3,11.6c-10.5-2.1-14-8.8-9.8-16.2c4.2-7.4,10-13.4,13.1-14.9c4.3-2,7.7-4.2,12.1,0.2
	C-199.6-114.8-193.4-107.3-198.2-100z"/>
<path fill="#53AF80" d="M-194,80c0,4.4-3.6,8-8,8h-75c-4.4,0-8-3.6-8-8V48c0-4.4,3.6-8,8-8h75c4.4,0,8,3.6,8,8V80z"/>
<path fill="none" stroke="#3D3D3D" stroke-width="2" stroke-miterlimit="10" d="M-194,80c0,4.4-3.6,8-8,8h-75c-4.4,0-8-3.6-8-8V48
	c0-4.4,3.6-8,8-8h75c4.4,0,8,3.6,8,8V80z"/>
<path fill="#8DCEA8" d="M-180,80c0,4.4-3.6,8-8,8h-75c-4.4,0-8-3.6-8-8V48c0-4.4,3.6-8,8-8h75c4.4,0,8,3.6,8,8V80z"/>
<path fill="none" stroke="#3D3D3D" stroke-width="2" stroke-miterlimit="10" d="M-180,80c0,4.4-3.6,8-8,8h-75c-4.4,0-8-3.6-8-8V48
	c0-4.4,3.6-8,8-8h75c4.4,0,8,3.6,8,8V80z"/>
<path fill="none" stroke="#3D3D3D" stroke-width="2" stroke-linecap="square" stroke-linejoin="round" stroke-miterlimit="10" stroke-dasharray="3,4" d="
	M-278,67V48c0-4.4,3.6-8,8-8h75"/>
<line fill="none" stroke="#3D3D3D" stroke-width="2" stroke-miterlimit="10" x1="-285" y1="67" x2="-271" y2="67"/>
<path fill="none" stroke="#3D3D3D" stroke-width="2" stroke-miterlimit="10" d="M-179.3,53.9c1.8,3.9,3.6,8.3,4,12.7
	c0.4,4.4-2.7,5.3-4,0S-179.3,53.9-179.3,53.9z"/>
<rect x="-262" y="65" fill="#FFFFFF" width="13" height="14"/>
<rect x="-262" y="65" fill="none" stroke="#3D3D3D" stroke-width="2" stroke-miterlimit="10" width="13" height="14"/>
<path fill="#E2E2E2" d="M-108,122.3c-7.2,0.7-12.9-4-14.1-11.9c-1-6.9-7.3-45.4-1.7-63.6c5-16,17.7-17.8,24.3-15.7
	c9.5,3.1,15.5,10.8,12.7,24c-3.1,14.7-11.9,23.5-10,41.4C-94.8,115.3-97.8,121.3-108,122.3z"/>
<path fill="#E2E2E2" d="M-73.7,96.9c6.8,2.5,13.5-0.7,16.6-8.1c2.7-6.4,18.3-42.2,17.4-61.2C-40.5,10.8-52.4,6-59.3,6.4
	c-9.9,0.7-17.7,6.6-18.2,20.1c-0.6,15,5.7,25.7-0.6,42.6C-84.7,86.8-83.3,93.3-73.7,96.9z"/>
<path fill="#FFFFFF" d="M-122.2,101.3c-0.4,0-0.8,0-1.2,0.1c0.6,4.2,1.1,7.4,1.3,8.9c0.4,2.7,1.3,5.1,2.7,7c3.2-1.2,5.4-4.2,5.4-7.7
	C-114,105-117.7,101.3-122.2,101.3z"/>
<path fill="#FFFFFF" d="M-96,82c-1.5-2.3-4-3.8-6.9-3.8c-4.6,0-8.3,3.7-8.3,8.3c0,4.6,3.7,8.3,8.3,8.3c2.3,0,4.4-0.9,5.9-2.4
	C-97.1,88.5-96.7,85.1-96,82z"/>
<path fill="#FFFFFF" d="M-104.8,110.9c0,3.5,2.2,6.6,5.4,7.7c2.6-3,3.5-7.9,3.1-16c-0.1,0-0.2,0-0.3,0
	C-101.1,102.7-104.8,106.4-104.8,110.9z"/>
<circle fill="#FFFFFF" cx="-117.3" cy="60.2" r="8.3"/>
<circle fill="#FFFFFF" cx="-94.7" cy="54.4" r="8.3"/>
<path fill="#FFFFFF" d="M-116.7,35c1.2,3,4.2,5.1,7.6,5.1c4.6,0,8.3-3.7,8.3-8.3c0-0.4,0-0.8-0.1-1.1
	C-105.3,29.8-111.5,30.5-116.7,35z"/>
<path fill="none" stroke="#3D3D3D" stroke-width="2" stroke-linejoin="round" stroke-miterlimit="10" d="M-108,122.3
	c-7.2,0.7-12.9-4-14.1-11.9c-1-6.9-7.3-45.4-1.7-63.6c5-16,17.7-17.8,24.3-15.7c9.5,3.1,15.5,10.8,12.7,24
	c-3.1,14.7-11.9,23.5-10,41.4C-94.8,115.3-97.8,121.3-108,122.3z"/>
<path fill="#53AF80" d="M-120.3,93.8c-1,0-1.9-0.6-2.3-1.5c-0.4-0.8-8.6-19.8-1.4-34.9c3.6-7.6,10.4-12.8,20.3-15.5
	c0.9-0.3,2,0.1,2.6,0.8c20.2,24.4,4.1,43.8-1.3,50.2c-0.9,1.1-2.5,1.2-3.5,0.3c-1.1-0.9-1.2-2.5-0.3-3.5c7.9-9.5,16.6-24.1,2.3-42.5
	c-7.5,2.4-12.8,6.5-15.5,12.4c-6.2,13.1,1.4,30.6,1.5,30.7c0.6,1.3,0,2.7-1.3,3.3C-119.6,93.7-120,93.8-120.3,93.8z"/>
<path fill="none" stroke="#3D3D3D" stroke-width="2" stroke-linejoin="round" stroke-miterlimit="10" d="M-120.3,93.8
	c-1,0-1.9-0.6-2.3-1.5c-0.4-0.8-8.6-19.8-1.4-34.9c3.6-7.6,10.4-12.8,20.3-15.5c0.9-0.3,2,0.1,2.6,0.8c20.2,24.4,4.1,43.8-1.3,50.2
	c-0.9,1.1-2.5,1.2-3.5,0.3c-1.1-0.9-1.2-2.5-0.3-3.5c7.9-9.5,16.6-24.1,2.3-42.5c-7.5,2.4-12.8,6.5-15.5,12.4
	c-6.2,13.1,1.4,30.6,1.5,30.7c0.6,1.3,0,2.7-1.3,3.3C-119.6,93.7-120,93.8-120.3,93.8z"/>
<path fill="#FFFFFF" d="M-54.7,80.1c0.4,0.1,0.8,0.2,1.1,0.4c-1.6,3.9-2.9,6.9-3.5,8.3c-1.1,2.6-2.6,4.6-4.4,6.1
	c-2.8-1.9-4.2-5.4-3.3-8.8C-63.6,81.6-59.1,78.9-54.7,80.1z"/>
<path fill="#FFFFFF" d="M-75.4,54.8c2-1.9,4.8-2.7,7.7-2c4.4,1.1,7.1,5.6,5.9,10c-1.1,4.4-5.6,7.1-10,5.9c-2.2-0.6-4-2-5.1-3.8
	C-75.9,61.4-75.4,58-75.4,54.8z"/>
<path fill="#FFFFFF" d="M-74,85c-0.9,3.4-3.8,5.8-7.1,6.1c-1.8-3.5-1.5-8.6,0.9-16.2c0.1,0,0.2,0,0.3,0.1
	C-75.5,76.1-72.8,80.6-74,85z"/>
<circle fill="#FFFFFF" cx="-49.3" cy="39.1" r="8.3"/>
<circle fill="#FFFFFF" cx="-69.8" cy="27.7" r="8.3"/>
<path fill="#FFFFFF" d="M-43.6,14.5c-1.9,2.6-5.3,3.9-8.6,3c-4.4-1.1-7.1-5.6-5.9-10c0.1-0.4,0.2-0.7,0.4-1.1
	C-53.3,6.6-47.5,8.8-43.6,14.5z"/>
<path fill="none" stroke="#3D3D3D" stroke-width="2" stroke-linejoin="round" stroke-miterlimit="10" d="M-73.7,96.9
	c6.8,2.5,13.5-0.7,16.6-8.1c2.7-6.4,18.3-42.2,17.4-61.2C-40.5,10.8-52.4,6-59.3,6.4c-9.9,0.7-17.7,6.6-18.2,20.1
	c-0.6,15,5.7,25.7-0.6,42.6C-84.7,86.8-83.3,93.3-73.7,96.9z"/>
<path fill="#53AF80" d="M-54.7,72.3c0.9,0.2,2-0.1,2.6-0.9c0.5-0.7,13.3-17,10-33.5c-1.6-8.3-6.9-15-15.8-20.1
	c-0.8-0.5-1.9-0.4-2.7,0.2C-86.3,36.6-75.4,59.5-71.8,67c0.6,1.2,2.1,1.8,3.3,1.2c1.2-0.6,1.8-2.1,1.2-3.3
	c-5.3-11.2-10.1-27.5,8.4-41.8c6.7,4.2,10.7,9.5,12,15.8c2.8,14.2-8.9,29.3-9.1,29.4c-0.9,1.1-0.7,2.7,0.4,3.5
	C-55.4,72-55,72.2-54.7,72.3z"/>
<path fill="none" stroke="#3D3D3D" stroke-width="2" stroke-linejoin="round" stroke-miterlimit="10" d="M-54.7,72.3
	c0.9,0.2,2-0.1,2.6-0.9c0.5-0.7,13.3-17,10-33.5c-1.6-8.3-6.9-15-15.8-20.1c-0.8-0.5-1.9-0.4-2.7,0.2C-86.3,36.6-75.4,59.5-71.8,67
	c0.6,1.2,2.1,1.8,3.3,1.2c1.2-0.6,1.8-2.1,1.2-3.3c-5.3-11.2-10.1-27.5,8.4-41.8c6.7,4.2,10.7,9.5,12,15.8
	c2.8,14.2-8.9,29.3-9.1,29.4c-0.9,1.1-0.7,2.7,0.4,3.5C-55.4,72-55,72.2-54.7,72.3z"/>
<polyline fill="#FFFFFF" points="36,109 36,18 93,18 93,109 "/>
<rect x="36" y="18" fill="none" stroke="#3D3D3D" stroke-width="2" stroke-miterlimit="10" width="57" height="91"/>
<rect x="44" y="18" fill="#8DCEA8" width="66" height="91"/>
<rect x="44" y="18" fill="none" stroke="#3D3D3D" stroke-width="2" stroke-miterlimit="10" width="66" height="91"/>
<path fill="#53AF80" d="M113.8,109H111c-0.7,0-1,0.1-1-0.7V19.1c0-0.7,0.2-1.1,1-1.1h2.8c2.2,0,4.2,1.6,4.2,3.8v83.8
	C118,107.9,116,109,113.8,109z"/>
<path fill="none" stroke="#3D3D3D" stroke-width="2" stroke-miterlimit="10" d="M113.8,109H111c-0.7,0-1,0.1-1-0.7V19.1
	c0-0.7,0.2-1.1,1-1.1h2.8c2.2,0,4.2,1.6,4.2,3.8v83.8C118,107.9,116,109,113.8,109z"/>
<line fill="none" stroke="#3D3D3D" stroke-width="2" stroke-miterlimit="10" x1="40" y1="18" x2="40" y2="109"/>
<rect x="58" y="18" fill="#3D3D3D" width="4" height="92"/>
<path fill="none" stroke="#3D3D3D" stroke-width="2" stroke-linecap="round" stroke-miterlimit="10" d="M98.2,109.4
	c0,0-0.5,6.4,3.2,9.6s8.2,4.6,8.2,4.6"/>
<rect x="73" y="33" fill="#FFFFFF" width="27" height="20"/>
<rect x="73" y="33" fill="none" stroke="#3D3D3D" stroke-width="2" stroke-miterlimit="10" width="28" height="19"/>
<line fill="none" stroke="#3D3D3D" stroke-width="2" stroke-miterlimit="10" x1="79" y1="38" x2="95" y2="38"/>
<line fill="none" stroke="#3D3D3D" stroke-width="2" stroke-miterlimit="10" x1="79" y1="42" x2="95" y2="42"/>
<line fill="none" stroke="#3D3D3D" stroke-width="2" stroke-miterlimit="10" x1="84" y1="46" x2="90" y2="46"/>
<rect x="15" y="33" fill="#8DCEA8" width="8" height="67"/>
<rect x="19" y="33" fill="#53AF80" width="4" height="67"/>
<path fill="none" stroke="#3D3D3D" stroke-width="2" stroke-miterlimit="10" d="M22,33h-5.5c-0.8,0-1.6,0.4-1.6,1.2V100h8V34.2
	C23,33.4,22.8,33,22,33z"/>
<path fill="#FFFFFF" d="M20.7,107h-2.7c-1.5,0-2.9-1.5-2.9-3v-4h8v4C23,105.5,22.2,107,20.7,107z"/>
<path fill="none" stroke="#3D3D3D" stroke-width="2" stroke-miterlimit="10" d="M20,107h-2c-1.6,0-3-1.3-3-3v-4h8v4
	C23,105.7,21.6,107,20,107z"/>
<line fill="none" stroke="#3D3D3D" stroke-width="2" stroke-miterlimit="10" x1="15" y1="96" x2="23" y2="96"/>
<line fill="none" stroke="#3D3D3D" stroke-width="2" stroke-miterlimit="10" x1="15" y1="93" x2="23" y2="93"/>
<polyline fill="none" stroke="#3D3D3D" stroke-width="2" stroke-linecap="round" stroke-linejoin="round" stroke-miterlimit="10" points="
	23.1,34.2 19,21.9 14.9,34.2 "/>
<path fill="#53AF80" d="M244,112h-65.8c-2.1,0-4.2-1.3-4.2-3.4V53.8c0-2.1,2.1-3.8,4.2-3.8H244V112z"/>
<path fill="none" stroke="#3D3D3D" stroke-width="2" stroke-miterlimit="10" d="M244,112h-65.8c-2.1,0-4.2-1.3-4.2-3.4V53.8
	c0-2.1,2.1-3.8,4.2-3.8H244V112z"/>
<path fill="#E2E2E2" d="M249,18.9V91h-61V18.9c0-2.1,1.2-3.9,3.3-3.9h54.8C248.2,15,249,16.8,249,18.9z"/>
<path fill="none" stroke="#3D3D3D" stroke-width="2" stroke-miterlimit="10" d="M249,18.9V91h-61V18.9c0-2.1,1.2-3.9,3.3-3.9h54.8
	C248.2,15,249,16.8,249,18.9z"/>
<path fill="#53AF80" d="M203.8,59c-4,0-7.2-3.5-7.2-7.5s3.2-7.5,7.2-7.5h3.2v15H203.8z"/>
<path fill="none" stroke="#3D3D3D" stroke-width="2" stroke-miterlimit="10" d="M203.8,59c-4,0-7.2-3.5-7.2-7.5s3.2-7.5,7.2-7.5h3.2
	v15H203.8z"/>
<circle fill="#8DCEA8" cx="206.8" cy="51.3" r="7.2"/>
<path fill="#53AF80" d="M229.8,59c-4,0-7.2-3.5-7.2-7.5s3.2-7.5,7.2-7.5h3.2v15H229.8z"/>
<path fill="none" stroke="#3D3D3D" stroke-width="2" stroke-miterlimit="10" d="M229.8,59c-4,0-7.2-3.5-7.2-7.5s3.2-7.5,7.2-7.5h3.2
	v15H229.8z"/>
<circle fill="#8DCEA8" cx="232.8" cy="51.3" r="7.2"/>
<circle fill="none" stroke="#3D3D3D" stroke-width="2" stroke-miterlimit="10" cx="232.8" cy="51.4" r="7.5"/>
<circle fill="none" stroke="#3D3D3D" stroke-width="2" stroke-miterlimit="10" cx="206.8" cy="51.4" r="7.5"/>
<path fill="#FFFFFF" d="M251.8,112H180V50h71.8c2.1,0,4.2,1.7,4.2,3.8v54.8C256,110.7,253.9,112,251.8,112z"/>
<path fill="none" stroke="#3D3D3D" stroke-width="2" stroke-miterlimit="10" d="M251.8,112H180V50h71.8c2.1,0,4.2,1.7,4.2,3.8v54.8
	C256,110.7,253.9,112,251.8,112z"/>
<polygon fill="#53AF80" points="237,75 225,75 225,63 210,63 210,75 199,75 199,90 210,90 210,101 225,101 225,90 237,90 "/>
<polygon fill="none" stroke="#3D3D3D" stroke-width="2" stroke-miterlimit="10" points="237,75 225,75 225,63 210,63 210,75 199,75 
	199,90 210,90 210,101 225,101 225,90 237,90 "/>
<path fill="#FFFFFF" d="M341.3,84.6c0.7,3.1-1.2,6.2-4.3,6.9l-22.4,5.3l-10.8-46.3l22.4-5.3c3.1-0.7,6.2,1.2,6.9,4.3
	c-0.7-3.1,1.2-6.2,4.3-6.9l70.1-16.4l10.8,46.3l-70.1,16.4C345.1,89.6,342,87.7,341.3,84.6z"/>
<path fill="#8DCEA8" d="M337.4,42.6c-3.1,0.7-5,3.8-4.3,6.9c-0.7-3.1-3.8-5-6.9-4.3l-22.4,5.3l2,8.4l103.7-24.3l-2-8.4L337.4,42.6z"
	/>
<path fill="none" stroke="#3D3D3D" stroke-width="2" stroke-miterlimit="10" d="M341.3,84.6c0.7,3.1-1.2,6.2-4.3,6.9l-22.4,5.3
	l-10.8-46.3l22.4-5.3c3.1-0.7,6.2,1.2,6.9,4.3c-0.7-3.1,1.2-6.2,4.3-6.9l70.1-16.4l10.8,46.3l-70.1,16.4
	C345.1,89.6,342,87.7,341.3,84.6z"/>
<rect x="345.8" y="72.7" transform="matrix(0.9736 -0.2283 0.2283 0.9736 -7.0666 88.6398)" fill="#53AF80" width="67.7" height="4.3"/>
<rect x="317" y="85.2" transform="matrix(0.9736 -0.2283 0.2283 0.9736 -11.3232 76.8116)" fill="#53AF80" width="18.7" height="4.3"/>
<path fill="#FFFFFF" d="M336.5,79.2c0,3.2-2.6,5.8-5.8,5.8H308V38h22.8c3.2,0,5.8,2.6,5.8,5.8c0-3.2,2.6-5.8,5.8-5.8H414v47h-71.7
	C339.1,85,336.5,82.4,336.5,79.2z"/>
<path fill="#8DCEA8" d="M342.3,38c-3.2,0-5.8,2.6-5.8,5.8c0-3.2-2.6-5.8-5.8-5.8H308v8h106v-8H342.3z"/>
<path fill="none" stroke="#3D3D3D" stroke-width="2" stroke-miterlimit="10" d="M336,79.6c0,3.2-2.1,5.4-5.2,5.4H308V38h22.8
	c3.2,0,5.2,2,5.2,5.2c0-3.2,3.1-5.2,6.3-5.2H414v47h-71.7C339.1,85,336,82.8,336,79.6z"/>
<line fill="none" stroke="#3D3D3D" stroke-width="2" stroke-linecap="square" stroke-linejoin="round" stroke-miterlimit="10" stroke-dasharray="3,4" x1="336" y1="46" x2="336" y2="77"/>
<rect x="342" y="77" fill="#53AF80" width="68" height="4"/>
<rect x="312" y="77" fill="#53AF80" width="19" height="4"/>
<line fill="none" stroke="#3D3D3D" stroke-width="2" stroke-miterlimit="10" x1="315" y1="53" x2="330" y2="53"/>
<line fill="none" stroke="#3D3D3D" stroke-width="2" stroke-miterlimit="10" x1="315" y1="57" x2="330" y2="57"/>
<line fill="none" stroke="#3D3D3D" stroke-width="2" stroke-miterlimit="10" x1="315" y1="61" x2="322" y2="61"/>
<line fill="none" stroke="#3D3D3D" stroke-width="2" stroke-miterlimit="10" x1="369" y1="53" x2="406" y2="53"/>
<line fill="none" stroke="#3D3D3D" stroke-width="2" stroke-miterlimit="10" x1="369" y1="57" x2="406" y2="57"/>
<line fill="none" stroke="#3D3D3D" stroke-width="2" stroke-miterlimit="10" x1="369" y1="61" x2="391" y2="61"/>
<line fill="none" stroke="#3D3D3D" stroke-width="2" stroke-miterlimit="10" x1="342" y1="73" x2="358" y2="73"/>
<line fill="none" stroke="#3D3D3D" stroke-width="2" stroke-miterlimit="10" x1="374" y1="73" x2="384" y2="73"/>
<line fill="none" stroke="#3D3D3D" stroke-width="2" stroke-miterlimit="10" x1="395" y1="73" x2="410" y2="73"/>
<line fill="none" stroke="#3D3D3D" stroke-width="2" stroke-miterlimit="10" x1="347.9" y1="60.9" x2="358.9" y2="49.9"/>
<polyline fill="none" stroke="#3D3D3D" stroke-width="2" stroke-miterlimit="10" points="356,53 356,61 354.9,61 352,57.9 "/>
<polyline fill="none" stroke="#3D3D3D" stroke-width="2" stroke-miterlimit="10" points="357,53 348,53 348,54 351.6,57.5 "/>
<line fill="none" stroke="#3D3D3D" stroke-width="2" stroke-miterlimit="10" x1="348" y1="61" x2="348" y2="65"/>
<line fill="none" stroke="#3D3D3D" stroke-width="2" stroke-miterlimit="10" x1="348" y1="61" x2="344" y2="61"/>
<path fill="#C1C1C0" d="M384,230h-58c-4.6,0-8-3.6-8-8.2v-43.3c0-4.6,3.4-8.6,8-8.6h58"/>
<path fill="none" stroke="#3D3D3D" stroke-width="2" stroke-miterlimit="10" d="M384,230h-58c-4.6,0-8-3.6-8-8.2v-43.3
	c0-4.6,3.4-8.6,8-8.6h58"/>
<path fill="#E2E2E2" d="M400,221.8c0,4.6-3.7,8.2-8.2,8.2h-57.5c-4.6,0-8.2-3.7-8.2-8.2v-43.5c0-4.6,3.7-8.2,8.2-8.2h57.5
	c4.6,0,8.2,3.7,8.2,8.2V221.8z"/>
<rect x="353" y="165" fill="#3D3D3D" width="45" height="5"/>
<path fill="none" stroke="#3D3D3D" stroke-width="2" stroke-miterlimit="10" d="M400,221.8c0,4.6-3.7,8.2-8.2,8.2h-57.5
	c-4.6,0-8.2-3.7-8.2-8.2v-43.5c0-4.6,3.7-8.2,8.2-8.2h57.5c4.6,0,8.2,3.7,8.2,8.2V221.8z"/>
<path fill="#FFFFFF" d="M404,203.9c0,2.3-1.8,4.1-4.1,4.1h-37.8c-2.3,0-4.1-1.8-4.1-4.1v-31.8c0-2.3,1.8-4.1,4.1-4.1h37.8
	c2.3,0,4.1,1.8,4.1,4.1V203.9z"/>
<path fill="none" stroke="#3D3D3D" stroke-width="2" stroke-miterlimit="10" d="M404,203.9c0,2.3-1.8,4.1-4.1,4.1h-37.8
	c-2.3,0-4.1-1.8-4.1-4.1v-31.8c0-2.3,1.8-4.1,4.1-4.1h37.8c2.3,0,4.1,1.8,4.1,4.1V203.9z"/>
<rect x="386" y="216" fill="none" stroke="#3D3D3D" stroke-width="2" stroke-miterlimit="10" width="8" height="4"/>
<rect x="358" y="216" fill="none" stroke="#3D3D3D" stroke-width="2" stroke-miterlimit="10" width="23" height="4"/>
<rect x="365" y="174" fill="#C1C1C0" width="33" height="27"/>
<rect x="365" y="174" fill="none" stroke="#3D3D3D" stroke-width="2" stroke-miterlimit="10" width="33" height="27"/>
<circle fill="#53AF80" cx="381.5" cy="187.7" r="12.5"/>
<circle fill="none" stroke="#3D3D3D" stroke-width="2" stroke-miterlimit="10" cx="381.5" cy="187.7" r="12.5"/>
<circle fill="#3D3D3D" cx="381.5" cy="187.7" r="6"/>
<circle fill="#FFFFFF" cx="343.3" cy="213.4" r="8.2"/>
<circle fill="none" stroke="#3D3D3D" stroke-width="2" stroke-miterlimit="10" cx="343.3" cy="213.4" r="8.2"/>
<path fill="#8DCEA8" d="M353,179.1c0-1.1-0.9-2.1-2.1-2.1h-16.9c-1.1,0-2.1,0.9-2.1,2.1v11.9c0,1.1,0.9,2.1,2.1,2.1h16.9
	c1.1,0,2.1-0.9,2.1-2.1V179.1z"/>
<path fill="none" stroke="#3D3D3D" stroke-width="2" stroke-miterlimit="10" d="M353,179.1c0-1.1-0.9-2.1-2.1-2.1h-16.9
	c-1.1,0-2.1,0.9-2.1,2.1v11.9c0,1.1,0.9,2.1,2.1,2.1h16.9c1.1,0,2.1-0.9,2.1-2.1V179.1z"/>
<line fill="none" stroke="#3D3D3D" stroke-width="2" stroke-miterlimit="10" x1="336" y1="177" x2="336" y2="193"/>
<rect x="318" y="205" fill="#3D3D3D" width="8" height="11"/>
<path fill="none" stroke="#3D3D3D" stroke-width="2" stroke-miterlimit="10" d="M350.7,160h-12.4c-1.1,0-2.3,0.9-2.3,2.1v7.9h17
	v-7.9C353,160.9,351.8,160,350.7,160z"/>
<line fill="none" stroke="#3D3D3D" stroke-width="2" stroke-miterlimit="10" x1="347" y1="160" x2="347" y2="168"/>
<line fill="none" stroke="#3D3D3D" stroke-width="2" stroke-miterlimit="10" x1="342" y1="160" x2="342" y2="168"/>
<rect x="334" y="230" fill="#C1C1C0" width="56" height="6"/>
<rect x="334" y="230" fill="none" stroke="#3D3D3D" stroke-width="2" stroke-miterlimit="10" width="56" height="6"/>
<polyline fill="#C1C1C0" points="355,263 355,236 369,236 369,263 "/>
<polyline fill="none" stroke="#3D3D3D" stroke-width="2" stroke-miterlimit="10" points="355,263 355,236 369,236 369,263 "/>
<line fill="none" stroke="#3D3D3D" stroke-width="2" stroke-miterlimit="10" x1="361" y1="236" x2="361" y2="263"/>
<path fill="#53AF80" d="M211.8,224.4c-7.6,0-13.7-6.2-13.7-13.8c0-7.6,6.1-13.8,13.7-13.8l4.2,0.3v27.5L211.8,224.4z"/>
<rect x="207" y="168" fill="#8DCEA8" width="14" height="33"/>
<rect x="207" y="168" fill="none" stroke="#3D3D3D" stroke-width="2" stroke-miterlimit="10" width="14" height="33"/>
<polygon fill="#8DCEA8" points="221,222 207,222 207,259.6 214,264.9 221,259.6 "/>
<polygon fill="none" stroke="#3D3D3D" stroke-width="2" stroke-miterlimit="10" points="221,222 207,222 207,259.6 214,264.9 
	221,259.6 "/>
<path fill="none" stroke="#3D3D3D" stroke-width="2" stroke-miterlimit="10" d="M211.9,225c-7.6,0-13.8-6.4-13.8-14s6.2-14,13.8-14
	h4.1v28H211.9z"/>
<circle fill="#FFFFFF" cx="216.1" cy="211" r="13.8"/>
<circle fill="none" stroke="#3D3D3D" stroke-width="2" stroke-miterlimit="10" cx="216.1" cy="211" r="13.8"/>
<polyline fill="none" stroke="#3D3D3D" stroke-width="2" stroke-miterlimit="10" points="216,201 216,211 221,211 "/>
<path fill="none" stroke="#3D3D3D" stroke-width="2" stroke-miterlimit="10" d="M223,159.1c0-0.6-0.5-1.1-1.1-1.1h-16.9
	c-0.6,0-1.1,0.5-1.1,1.1v7.9c0,0.6,0.5,1.1,1.1,1.1h16.9c0.6,0,1.1-0.5,1.1-1.1V159.1z"/>
<line fill="none" stroke="#3D3D3D" stroke-width="2" stroke-miterlimit="10" x1="214" y1="168" x2="214" y2="160"/>
<circle fill="#3D3D3D" cx="214" cy="248" r="2.1"/>
<circle fill="#3D3D3D" cx="214" cy="255.7" r="2.1"/>
<circle fill="#3D3D3D" cx="214" cy="240.3" r="2.1"/>
<path fill="#C1C1C0" d="M112,253H21.1c-2.8,0-5.1-2.6-5.1-5.4v-43.2c0-2.8,2.3-5.4,5.1-5.4H112"/>
<path fill="none" stroke="#3D3D3D" stroke-width="2" stroke-miterlimit="10" d="M112,253H21.1c-2.8,0-5.1-2.6-5.1-5.4v-43.2
	c0-2.8,2.3-5.4,5.1-5.4H112"/>
<path fill="#E2E2E2" d="M120,247.9c0,2.8-2.3,5.1-5.1,5.1H25.1c-2.8,0-5.1-2.3-5.1-5.1v-43.8c0-2.8,2.3-5.1,5.1-5.1h89.8
	c2.8,0,5.1,2.3,5.1,5.1V247.9z"/>
<path fill="none" stroke="#3D3D3D" stroke-width="2" stroke-miterlimit="10" d="M120,247.9c0,2.8-2.3,5.1-5.1,5.1H25.1
	c-2.8,0-5.1-2.3-5.1-5.1v-43.8c0-2.8,2.3-5.1,5.1-5.1h89.8c2.8,0,5.1,2.3,5.1,5.1V247.9z"/>
<line fill="none" stroke="#3D3D3D" stroke-width="2" stroke-miterlimit="10" x1="26" y1="208" x2="114" y2="208"/>
<rect x="32" y="171" fill="#53AF80" width="36" height="37"/>
<rect x="32" y="171" fill="none" stroke="#3D3D3D" stroke-width="2" stroke-miterlimit="10" width="36" height="37"/>
<rect x="37" y="171" fill="#53AF80" width="34" height="37"/>
<rect x="37" y="171" fill="none" stroke="#3D3D3D" stroke-width="2" stroke-miterlimit="10" width="34" height="37"/>
<rect x="42" y="171" fill="#53AF80" width="35" height="37"/>
<rect x="46" y="176" fill="#8DCEA8" width="25" height="32"/>
<path fill="#53AF80" d="M68.1,208.3c0.8-1.4,1.2-3,1.2-4.7c0-5.5-4.5-10-10-10s-10,4.5-10,10c0,1.8,0.5,3.5,1.3,4.9"/>
<rect x="42" y="171" fill="none" stroke="#3D3D3D" stroke-width="2" stroke-miterlimit="10" width="35" height="37"/>
<path fill="#53AF80" d="M71.6,184.5c-4.7,0-8.5-3.5-8.5-8.5H72L71.6,184.5z"/>
<path fill="#53AF80" d="M55.1,176c0,5-4.1,9-9.1,9v-9H55.1z"/>
<rect x="46" y="176" fill="none" stroke="#3D3D3D" stroke-width="2" stroke-miterlimit="10" width="25" height="32"/>
<path fill="none" stroke="#3D3D3D" stroke-width="2" stroke-miterlimit="10" d="M55.1,176.4c0,4.7-3.8,8.5-8.5,8.5"/>
<path fill="none" stroke="#3D3D3D" stroke-width="2" stroke-miterlimit="10" d="M63.1,176.4c0,4.7,3.8,8.5,8.5,8.5"/>
<path fill="#8DCEA8" d="M95.1,222.2c0-3.7,3-6.7,6.7-6.7c3.7,0,6.7,3,6.7,6.7"/>
<path fill="none" stroke="#3D3D3D" stroke-width="2" stroke-miterlimit="10" d="M95.1,222.2c0-3.7,3-6.7,6.7-6.7
	c3.7,0,6.7,3,6.7,6.7"/>
<path fill="#8DCEA8" d="M85.1,222.2c0-4.4,3.6-8,8-8s8,3.6,8,8"/>
<path fill="none" stroke="#3D3D3D" stroke-width="2" stroke-miterlimit="10" d="M85.1,222.2c0-4.4,3.6-8,8-8s8,3.6,8,8"/>
<path fill="none" stroke="#3D3D3D" stroke-width="2" stroke-miterlimit="10" d="M68.1,208.3c0.8-1.4,1.2-3,1.2-4.7
	c0-5.5-4.5-10-10-10s-10,4.5-10,10c0,1.8,0.5,3.5,1.3,4.9"/>
<path fill="none" stroke="#3D3D3D" stroke-width="2" stroke-miterlimit="10" d="M25,223h33.6c2.8,0,4.4,0.8,4.4,3.6V248"/>
<path fill="none" stroke="#3D3D3D" stroke-width="2" stroke-miterlimit="10" d="M25,235h33.6c2.8,0,4.4,1.5,4.4,4.3v8.7"/>
<path fill="none" stroke="#3D3D3D" stroke-width="2" stroke-miterlimit="10" d="M114,223H80.2c-2.8,0-4.2,0.8-4.2,3.6V248"/>
<line fill="none" stroke="#3D3D3D" stroke-width="2" stroke-linecap="square" stroke-linejoin="round" stroke-miterlimit="10" stroke-dasharray="3,4" x1="69" y1="211" x2="69" y2="250"/>
<path fill="#E2E2E2" d="M10,230.9c-2.5,0-4.6-1.5-4.6-4c0-2.5,1.8-4,4.3-4H18v8.1L10,230.9z"/>
<path fill="none" stroke="#3D3D3D" stroke-width="2" stroke-miterlimit="10" d="M10,230.9c-2.5,0-4.6-1.5-4.6-4c0-2.5,1.8-4,4.3-4
	H18v8.1L10,230.9z"/>
<circle fill="#3D3D3D" cx="9.7" cy="226.6" r="1.9"/>
<rect x="81" y="188" fill="#FFFFFF" width="27" height="20"/>
<rect x="81" y="188" fill="none" stroke="#3D3D3D" stroke-width="2" stroke-miterlimit="10" width="27" height="20"/>
<line fill="none" stroke="#3D3D3D" stroke-width="2" stroke-miterlimit="10" x1="87" y1="197" x2="102" y2="197"/>
<line fill="none" stroke="#3D3D3D" stroke-width="2" stroke-miterlimit="10" x1="87" y1="201" x2="102" y2="201"/>
<line fill="none" stroke="#3D3D3D" stroke-width="2" stroke-miterlimit="10" x1="87" y1="205" x2="102" y2="205"/>
<path fill="#53AF80" d="M53.2,213H36c-1.2,0-2,1-2,2.2v7.8h21v-7.8C55,214,54.4,213,53.2,213z"/>
<path fill="none" stroke="#3D3D3D" stroke-width="2" stroke-miterlimit="10" d="M53,213H36c-1.1,0-2,0.9-2,2v8h21v-8
	C55,213.9,54.1,213,53,213z"/>
<rect x="38" y="213" fill="#3D3D3D" width="6" height="11"/>
<path fill="#E2E2E2" d="M-42,169.7c0-3.2-2.6-5.7-5.7-5.7h-71.5c-3.2,0-5.7,2.6-5.7,5.7v87.5c0,3.2,2.6,5.7,5.7,5.7h71.5
	c3.2,0,5.7-2.6,5.7-5.7V169.7z"/>
<path fill="none" stroke="#3D3D3D" stroke-width="2" stroke-miterlimit="10" d="M-42,169.7c0-3.2-2.6-5.7-5.7-5.7h-71.5
	c-3.2,0-5.7,2.6-5.7,5.7v87.5c0,3.2,2.6,5.7,5.7,5.7h71.5c3.2,0,5.7-2.6,5.7-5.7V169.7z"/>
<path fill="#C1C1C0" d="M-38,169.7c0-3.2-2.6-5.7-5.7-5.7h-71.5c-3.2,0-5.7,2.6-5.7,5.7v87.5c0,3.2,2.6,5.7,5.7,5.7h71.5
	c3.2,0,5.7-2.6,5.7-5.7V169.7z"/>
<path fill="none" stroke="#3D3D3D" stroke-width="2" stroke-miterlimit="10" d="M-38,169.7c0-3.2-2.6-5.7-5.7-5.7h-71.5
	c-3.2,0-5.7,2.6-5.7,5.7v87.5c0,3.2,2.6,5.7,5.7,5.7h71.5c3.2,0,5.7-2.6,5.7-5.7V169.7z"/>
<rect x="-108" y="180" fill="#FFFFFF" width="59" height="63"/>
<rect x="-108" y="180" fill="none" stroke="#3D3D3D" stroke-width="2" stroke-miterlimit="10" width="59" height="63"/>
<line fill="none" stroke="#3D3D3D" stroke-width="2" stroke-miterlimit="10" x1="-108" y1="191" x2="-49" y2="191"/>
<rect x="-101" y="184" fill="none" stroke="#3D3D3D" stroke-width="2" stroke-miterlimit="10" width="3" height="3"/>
<rect x="-91" y="184" fill="none" stroke="#3D3D3D" stroke-width="2" stroke-miterlimit="10" width="3" height="3"/>
<rect x="-81" y="184" fill="none" stroke="#3D3D3D" stroke-width="2" stroke-miterlimit="10" width="3" height="3"/>
<rect x="-71" y="184" fill="none" stroke="#3D3D3D" stroke-width="2" stroke-miterlimit="10" width="3" height="3"/>
<rect x="-61" y="184" fill="none" stroke="#3D3D3D" stroke-width="2" stroke-miterlimit="10" width="3" height="3"/>
<line fill="none" stroke="#3D3D3D" stroke-width="2" stroke-miterlimit="10" x1="-99" y1="200" x2="-58" y2="200"/>
<line fill="none" stroke="#3D3D3D" stroke-width="2" stroke-miterlimit="10" x1="-99" y1="204" x2="-58" y2="204"/>
<line fill="none" stroke="#3D3D3D" stroke-width="2" stroke-miterlimit="10" x1="-99" y1="208" x2="-66" y2="208"/>
<line fill="none" stroke="#3D3D3D" stroke-width="2" stroke-miterlimit="10" x1="-99" y1="213" x2="-58" y2="213"/>
<line fill="none" stroke="#3D3D3D" stroke-width="2" stroke-miterlimit="10" x1="-99" y1="217" x2="-58" y2="217"/>
<line fill="none" stroke="#3D3D3D" stroke-width="2" stroke-miterlimit="10" x1="-99" y1="221" x2="-76" y2="221"/>
<line fill="none" stroke="#3D3D3D" stroke-width="2" stroke-miterlimit="10" x1="-99" y1="226" x2="-58" y2="226"/>
<line fill="none" stroke="#3D3D3D" stroke-width="2" stroke-miterlimit="10" x1="-99" y1="230" x2="-58" y2="230"/>
<line fill="none" stroke="#3D3D3D" stroke-width="2" stroke-miterlimit="10" x1="-55" y1="237" x2="-61" y2="237"/>
<line fill="none" stroke="#3D3D3D" stroke-width="2" stroke-miterlimit="10" x1="-95" y1="237" x2="-101" y2="237"/>
<line fill="none" stroke="#3D3D3D" stroke-width="2" stroke-miterlimit="10" x1="-88" y1="253" x2="-66" y2="253"/>
<path fill="#FFFFFF" d="M-175,260c0,1.1-0.9,2-2,2H-278c-1.1,0-2-0.9-2-2V181c0-1.1,0.9-2,2-2H-177c1.1,0,2,0.9,2,2V260z"/>
<path fill="none" stroke="#3D3D3D" stroke-width="2" stroke-miterlimit="10" d="M-175,260c0,1.1-0.9,2-2,2H-278c-1.1,0-2-0.9-2-2
	V181c0-1.1,0.9-2,2-2H-177c1.1,0,2,0.9,2,2V260z"/>
<path fill="#53AF80" d="M-240,262h10v2h-9.4c-0.3,0-0.6-0.4-0.6-0.6V262z"/>
<path fill="none" stroke="#3D3D3D" stroke-width="2" stroke-miterlimit="10" d="M-240,262h10v2h-9.4c-0.3,0-0.6-0.4-0.6-0.6V262z"/>
<path fill="#53AF80" d="M-240,179h10v-2h-9.4c-0.3,0-0.6,0.3-0.6,0.6V179z"/>
<path fill="none" stroke="#3D3D3D" stroke-width="2" stroke-miterlimit="10" d="M-240,179h10v-2h-9.4c-0.3,0-0.6,0.3-0.6,0.6V179z"
	/>
<rect x="-290" y="178" fill="#C1C1C0" width="10" height="83"/>
<rect x="-290" y="178" fill="none" stroke="#3D3D3D" stroke-width="2" stroke-miterlimit="10" width="10" height="83"/>
<path fill="#53AF80" d="M-280.1,197.8c0,0,5.9-19.8,5.2-19.8h-8.8c-0.3,0-0.5,0.1-0.5,0.4l3.8,19.8
	C-280.3,198.5-280.1,198.2-280.1,197.8z"/>
<path fill="none" stroke="#3D3D3D" stroke-width="2" stroke-linecap="round" stroke-linejoin="round" stroke-miterlimit="10" d="
	M-275,178h-8.7c-0.3,0-0.5,0.1-0.5,0.4l3.8,19.7c0.1,0.3,0.2,0.2,0.2-0.2"/>
<path fill="#53AF80" d="M-291,197.6c0,0.4,0.3,0.7,0.4,0.3l3.9-19.6c0.1-0.3-0.1-0.4-0.4-0.4h-3.8V197.6z"/>
<path fill="none" stroke="#3D3D3D" stroke-width="2" stroke-linecap="round" stroke-linejoin="round" stroke-miterlimit="10" d="
	M-291,197.6c0,0.4,0.3,0.7,0.4,0.3l3.9-19.6c0.1-0.3-0.1-0.4-0.4-0.4h-3.8V197.6z"/>
<path fill="#53AF80" d="M-280,197.6v-16.1c0-2.2,1.4-3.5,3.6-3.5h16.1c0.4,0,0.7,0.3,0.3,0.6l-19.3,19.4
	C-279.6,198.4-280,198-280,197.6z"/>
<path fill="#53AF80" d="M-173,197.6v-16.1c0-2.2-2.2-3.5-4.4-3.5h-16.3c-0.4,0-0.7,0.3-0.3,0.6l19.8,19.4
	C-173.8,198.4-173,198-173,197.6z"/>
<path fill="#53AF80" d="M-173,242.5v15.9c0,2.2-2.2,3.6-4.4,3.6h-16.3c-0.4,0-0.7-0.3-0.3-0.6l19.8-19.4
	C-173.8,241.7-173,242.1-173,242.5z"/>
<path fill="none" stroke="#3D3D3D" stroke-width="2" stroke-miterlimit="10" d="M-280,197.6v-16.1c0-2.2,1.4-3.5,3.6-3.5h16.1
	c0.4,0,0.7,0.3,0.3,0.6l-19.3,19.4C-279.6,198.4-280,198-280,197.6z"/>
<path fill="#53AF80" d="M-280.1,242.1c0,0,5.9,19.9,5.2,19.9h-8.8c-0.3,0-0.5-0.2-0.5-0.5l3.8-19.8
	C-280.3,241.4-280.1,241.6-280.1,242.1z"/>
<path fill="none" stroke="#3D3D3D" stroke-width="2" stroke-linecap="round" stroke-linejoin="round" stroke-miterlimit="10" d="
	M-275,262h-8.7c-0.3,0-0.5-0.2-0.5-0.5l3.8-19.7c0.1-0.3,0.2-0.1,0.2,0.3"/>
<path fill="#53AF80" d="M-291,242.2c0-0.4,0.3-0.7,0.4-0.3l3.9,19.7c0.1,0.3-0.1,0.5-0.4,0.5h-3.8V242.2z"/>
<path fill="none" stroke="#3D3D3D" stroke-width="2" stroke-linecap="round" stroke-linejoin="round" stroke-miterlimit="10" d="
	M-291,242.2c0-0.4,0.3-0.7,0.4-0.3l3.9,19.7c0.1,0.3-0.1,0.5-0.4,0.5h-3.8V242.2z"/>
<path fill="#53AF80" d="M-280,242.2v16.1c0,2.2,1.4,3.8,3.6,3.8h16.1c0.4,0,0.7-0.5,0.3-0.8l-19.3-19.5
	C-279.6,241.5-280,241.7-280,242.2z"/>
<path fill="none" stroke="#3D3D3D" stroke-width="2" stroke-miterlimit="10" d="M-280,242.2v16.1c0,2.2,1.4,3.8,3.6,3.8h16.1
	c0.4,0,0.7-0.5,0.3-0.8l-19.3-19.5C-279.6,241.5-280,241.7-280,242.2z"/>
<path fill="none" stroke="#3D3D3D" stroke-width="2" stroke-miterlimit="10" d="M-173,197.6v-16.1c0-2.2-2.2-3.5-4.4-3.5h-16.3
	c-0.4,0-0.7,0.3-0.3,0.6l19.8,19.4C-173.8,198.4-173,198-173,197.6z"/>
<path fill="none" stroke="#3D3D3D" stroke-width="2" stroke-miterlimit="10" d="M-173,242.5v15.9c0,2.2-2.2,3.6-4.4,3.6h-16.3
	c-0.4,0-0.7-0.3-0.3-0.6l19.8-19.4C-173.8,241.7-173,242.1-173,242.5z"/>
<path fill="#8DCEA8" d="M-221,177.5c0-0.3-0.2-0.5-0.5-0.5h-10c-0.3,0-0.5,0.2-0.5,0.5v86c0,0.3,0.2,0.5,0.5,0.5h10
	c0.3,0,0.5-0.2,0.5-0.5V177.5z"/>
<path fill="none" stroke="#3D3D3D" stroke-width="2" stroke-miterlimit="10" d="M-221,177.5c0-0.3-0.2-0.5-0.5-0.5h-10
	c-0.3,0-0.5,0.2-0.5,0.5v86c0,0.3,0.2,0.5,0.5,0.5h10c0.3,0,0.5-0.2,0.5-0.5V177.5z"/>
<polyline fill="none" stroke="#3D3D3D" stroke-width="2" stroke-miterlimit="10" points="-231.6,237.5 -226.1,241.7 -221.4,237.9 
	"/>
<path fill="#E2E2E2" d="M-219,233.5c0,0.3-0.2,0.5-0.5,0.5h-13c-0.3,0-0.5-0.2-0.5-0.5v-1c0-0.3,0.2-0.5,0.5-0.5h13
	c0.3,0,0.5,0.2,0.5,0.5V233.5z"/>
<path fill="none" stroke="#3D3D3D" stroke-width="2" stroke-miterlimit="10" d="M-219,233.5c0,0.3-0.2,0.5-0.5,0.5h-13
	c-0.3,0-0.5-0.2-0.5-0.5v-1c0-0.3,0.2-0.5,0.5-0.5h13c0.3,0,0.5,0.2,0.5,0.5V233.5z"/>
<circle fill="#3D3D3D" cx="-226.5" cy="189.7" r="1.7"/>
<circle fill="#3D3D3D" cx="-226.5" cy="195.7" r="1.7"/>
<circle fill="#3D3D3D" cx="-226.5" cy="201.7" r="1.7"/>
<circle fill="#3D3D3D" cx="-226.1" cy="207.7" r="1.7"/>
<ellipse fill="#3D3D3D" cx="-226.5" cy="213.9" rx="1.7" ry="1.9"/>
<circle fill="#3D3D3D" cx="-226.5" cy="224" r="1.7"/>
<path fill="#E2E2E2" d="M-217,209c0-1.1-0.9-2-2-2H-234c-1.1,0-2,0.9-2,2v9.1c0,1.1,0.9,2,2,2h15.1c1.1,0,2-0.9,2-2V209z M-219,218
	h-14v-9h14V218z"/>
<path fill="none" stroke="#3D3D3D" stroke-width="2" stroke-miterlimit="10" d="M-217,218c0,1.1-0.9,2-2,2H-234c-1.1,0-2-0.9-2-2
	V209c0-1.1,0.9-2,2-2h15.1c1.1,0,2,0.9,2,2V218z"/>
<rect x="-233" y="210" fill="none" stroke="#3D3D3D" stroke-width="2" stroke-linejoin="round" stroke-miterlimit="10" width="13" height="7"/>
<rect x="-227" y="214" fill="#FFFFFF" width="1" height="7"/>
<rect x="-193.9" y="201.5" transform="matrix(-0.2479 0.9688 -0.9688 -0.2479 -37.8771 446.2104)" fill="#8DCEA8" width="3.4" height="13.8"/>
<rect x="-227" y="214" fill="none" stroke="#3D3D3D" stroke-width="2" stroke-linejoin="round" stroke-miterlimit="10" width="1" height="7"/>
<path fill="none" stroke="#3D3D3D" stroke-width="2" stroke-miterlimit="10" d="M-187.2,215l-12.4-3.2c-0.3-0.1-0.4-0.3-0.4-0.6
	l2.3-9.1c0.1-0.3,0.3-0.4,0.6-0.4l12.4,3.2c0.3,0.1,0.4,0.3,0.4,0.6l-2.3,9.1C-186.7,214.9-186.9,215.1-187.2,215z"/>
<polygon fill="none" stroke="#3D3D3D" stroke-width="2" stroke-linejoin="round" stroke-miterlimit="10" points="-259.3,204.4 
	-253.5,203.4 -255.1,202.4 -251.7,197.1 -253.5,197.4 -253.6,194.7 -255.8,196.1 -256.6,193.9 -258.6,198.1 -259.6,191.7 
	-261.4,193.6 -264.2,190.8 -264.6,194.7 -267.2,194.4 -263.9,200 -268.1,198 -267.4,200.2 -269.9,200.5 -268.2,202.6 -269.9,203.6 
	-263.8,205.5 -264.5,207.3 "/>
<line fill="none" stroke="#3D3D3D" stroke-width="2" stroke-linecap="round" stroke-linejoin="round" stroke-miterlimit="10" x1="-261.5" y1="198.2" x2="-257.9" y2="208.4"/>
<line fill="none" stroke="#3D3D3D" stroke-width="2" stroke-miterlimit="10" x1="-198.4" y1="205" x2="-185" y2="208.4"/>
<line fill="none" stroke="#3D3D3D" stroke-width="2" stroke-miterlimit="10" x1="-199.2" y1="208.4" x2="-185.9" y2="211.8"/>
<path fill="none" stroke="#3D3D3D" stroke-width="2" stroke-miterlimit="10" d="M-206.5,254.2c0,0,3.4-7.5,0.1-18.5"/>
<path fill="none" stroke="#3D3D3D" stroke-width="2" stroke-miterlimit="10" d="M-193.7,250.3c0,0-7.5-4.2-10.8-15.2"/>
<line fill="none" stroke="#3D3D3D" stroke-width="2" stroke-miterlimit="10" x1="-208.4" y1="254.8" x2="-202.2" y2="252.8"/>
<line fill="none" stroke="#3D3D3D" stroke-width="2" stroke-miterlimit="10" x1="-198.3" y1="251.7" x2="-192.1" y2="249.8"/>
<path fill="none" stroke="#3D3D3D" stroke-width="2" stroke-miterlimit="10" d="M-203.5,253.3c-0.6-1.8,0.4-3.8,2.2-4.3
	c1.8-0.5,3.7,0.5,4.3,2.3"/>
<polygon fill="none" stroke="#3D3D3D" stroke-width="2" stroke-miterlimit="10" points="-206.6,235.7 -208,233.8 -206.6,231.9 
	-204.3,232.7 -204.4,235 "/>
<line fill="none" stroke="#3D3D3D" stroke-width="2" stroke-miterlimit="10" x1="-206.5" y1="232" x2="-207.1" y2="230.1"/>
<line fill="none" stroke="#3D3D3D" stroke-width="2" stroke-miterlimit="10" x1="-206.5" y1="243.1" x2="-200.4" y2="241.3"/>
<line fill="none" stroke="#3D3D3D" stroke-width="2" stroke-miterlimit="10" x1="-207.1" y1="248.4" x2="-197" y2="245.4"/>
<path fill="none" stroke="#3D3D3D" stroke-width="2" stroke-linejoin="round" stroke-miterlimit="10" d="M-184.9,231.8
	c-1.9-1.3-3.6-2.7-5.2-4.3c-0.8-0.8-1.7-1.7-2-2.8c-0.3-1.1,0.1-2.6,1.2-3c0.5-0.2,1.1-0.2,1.6,0c1.3,0.4,2.3,1.4,2.7,2.7
	c0-0.5,0.4-0.9,0.8-1.2c1.2-0.8,2.6-1.1,4-0.9c1.1,0.2,2.2,0.9,2.3,1.9c0.1,0.7-0.4,1.4-0.8,2c-0.8,0.9-1.8,1.7-2.7,2.5
	C-184,229.5-184.7,230.6-184.9,231.8z"/>
<path fill="#C1C1C0" d="M-217,176v-2.4c0-4.2-1.6-8.5-13.5-8.5c-11.9,0-13.5,4.3-13.5,8.5v2.4h-3v-2.4c0-12,12.3-12,17-12
	c4.7,0,17,0,17,12v2.4H-217z"/>
<path fill="#FFFFFF" d="M-245.4,176h-11.8c-0.3,0-0.8,0.3-0.8,0.6v2.4h13v-2.4C-245,176.3-245.1,176-245.4,176z"/>
<path fill="none" stroke="#3D3D3D" stroke-width="2" stroke-miterlimit="10" d="M-217,176v-2.4c0-4.2-1.6-8.5-13.5-8.5
	c-11.9,0-13.5,4.3-13.5,8.5v2.4h-3v-2.4c0-12,12.3-12,17-12c4.7,0,17,0,17,12v2.4H-217z"/>
<path fill="#FFFFFF" d="M-205.2,176H-217c-0.3,0,0,0.3,0,0.6v2.4h12v-2.4C-205,176.3-204.9,176-205.2,176z"/>
<path fill="none" stroke="#3D3D3D" stroke-width="2" stroke-miterlimit="10" d="M-205.2,176H-217c-0.3,0,0,0.3,0,0.6v2.4h12v-2.4
	C-205,176.3-204.9,176-205.2,176z"/>
<path fill="#FFFFFF" d="M-202.2,176H-214c-0.3,0-1,0.3-1,0.6v2.4h13v-2.4C-202,176.3-201.9,176-202.2,176z"/>
<path fill="none" stroke="#3D3D3D" stroke-width="2" stroke-miterlimit="10" d="M-202.2,176H-214c-0.3,0-1,0.3-1,0.6v2.4h13v-2.4
	C-202,176.3-201.9,176-202.2,176z"/>
<path fill="none" stroke="#3D3D3D" stroke-width="2" stroke-miterlimit="10" d="M-245.4,176h-11.8c-0.3,0-0.8,0.3-0.8,0.6v2.4h13
	v-2.4C-245,176.3-245.1,176-245.4,176z"/>
<polygon fill="#FFFFFF" points="-269.1,233 -274.3,226.9 -270.2,220.1 -262.4,221.9 -261.7,229.8 "/>
<path fill="#FFFFFF" d="M-242.4,176h-11.8c-0.3,0-0.8,0.3-0.8,0.6v2.4h13v-2.4C-242,176.3-242.1,176-242.4,176z"/>
<polygon fill="none" stroke="#3D3D3D" stroke-width="2" stroke-linejoin="round" stroke-miterlimit="10" points="-269.1,233 
	-274.3,226.9 -270.2,220.1 -262.4,221.9 -261.7,229.8 "/>
<path fill="none" stroke="#3D3D3D" stroke-width="2" stroke-miterlimit="10" d="M-242.4,176h-11.8c-0.3,0-0.8,0.3-0.8,0.6v2.4h13
	v-2.4C-242,176.3-242.1,176-242.4,176z"/>
<polygon fill="#E2E2E2" points="-265.4,229.1 -258,220.7 -254.4,231.4 "/>
<polygon fill="none" stroke="#3D3D3D" stroke-width="2" stroke-linejoin="round" stroke-miterlimit="10" points="-265.4,229.1 
	-258,220.7 -254.4,231.4 "/>
<line fill="none" stroke="#3D3D3D" stroke-width="2" stroke-miterlimit="10" x1="-290" y1="209" x2="-280" y2="209"/>
<line fill="none" stroke="#3D3D3D" stroke-width="2" stroke-miterlimit="10" x1="-290" y1="214" x2="-280" y2="214"/>
<line fill="none" stroke="#3D3D3D" stroke-width="2" stroke-miterlimit="10" x1="-290" y1="219" x2="-280" y2="219"/>
<line fill="none" stroke="#3D3D3D" stroke-width="2" stroke-miterlimit="10" x1="-290" y1="224" x2="-280" y2="224"/>
<line fill="none" stroke="#3D3D3D" stroke-width="2" stroke-miterlimit="10" x1="-290" y1="229" x2="-280" y2="229"/>
<path fill="#53AF80" d="M360.2-246.3c-6.3,0-11.3,5.1-11.3,11.3c0,14,11.3,22.5,11.3,22.5s11.3-8.8,11.3-22.5
	C371.5-241.3,366.4-246.3,360.2-246.3z M360.2-229.3c-3,0-5.5-2.5-5.5-5.5c0-3,2.5-5.5,5.5-5.5c3,0,5.5,2.5,5.5,5.5
	C365.7-231.8,363.2-229.3,360.2-229.3z"/>
<path fill="none" stroke="#3D3D3D" stroke-width="2" stroke-linejoin="round" stroke-miterlimit="10" d="M371.5-235
	c0,13.7-11.3,22.5-11.3,22.5s-11.3-8.5-11.3-22.5c0-6.3,5.1-11.3,11.3-11.3C366.4-246.3,371.5-241.3,371.5-235z"/>
<circle fill="none" stroke="#3D3D3D" stroke-width="2" stroke-linejoin="round" stroke-miterlimit="10" cx="360.2" cy="-234.8" r="5.5"/>
<path fill="#53AF80" d="M203.8,38c-4,0-7.2-3.5-7.2-7.5s3.2-7.5,7.2-7.5h3.2v15H203.8z"/>
<path fill="none" stroke="#3D3D3D" stroke-width="2" stroke-miterlimit="10" d="M203.8,38c-4,0-7.2-3.5-7.2-7.5s3.2-7.5,7.2-7.5h3.2
	v15H203.8z"/>
<circle fill="#8DCEA8" cx="206.8" cy="30.3" r="7.2"/>
<path fill="#53AF80" d="M229.8,38c-4,0-7.2-3.5-7.2-7.5s3.2-7.5,7.2-7.5h3.2v15H229.8z"/>
<path fill="none" stroke="#3D3D3D" stroke-width="2" stroke-miterlimit="10" d="M229.8,38c-4,0-7.2-3.5-7.2-7.5s3.2-7.5,7.2-7.5h3.2
	v15H229.8z"/>
<circle fill="#8DCEA8" cx="232.8" cy="30.3" r="7.2"/>
<circle fill="none" stroke="#3D3D3D" stroke-width="2" stroke-miterlimit="10" cx="232.8" cy="30.5" r="7.5"/>
<circle fill="none" stroke="#3D3D3D" stroke-width="2" stroke-miterlimit="10" cx="206.8" cy="30.5" r="7.5"/>
</svg>
