<?xml version="1.0" encoding="utf-8"?>
<!-- Generator: Adobe Illustrator 18.0.0, SVG Export Plug-In . SVG Version: 6.00 Build 0)  -->
<!DOCTYPE svg PUBLIC "-//W3C//DTD SVG 1.1//EN" "http://www.w3.org/Graphics/SVG/1.1/DTD/svg11.dtd">
<svg version="1.1" id="Layer_1" xmlns="http://www.w3.org/2000/svg" xmlns:xlink="http://www.w3.org/1999/xlink" x="0px" y="0px"
	 viewBox="0 0 128 128" enable-background="new 0 0 128 128" xml:space="preserve">
<path fill="#C1C1C0" d="M87,105c0,3.8-3.1,7-7,7H38c-3.8,0-7-3.1-7-7V29c0-3.8,3.1-7,7-7H80c3.8,0,7,3.1,7,7V105z"/>
<path fill="none" stroke="#3D3D3D" stroke-width="2" stroke-linejoin="round" stroke-miterlimit="10" d="M87,105c0,3.8-3.1,7-7,7H38
	c-3.8,0-7-3.1-7-7V29c0-3.8,3.1-7,7-7H80c3.8,0,7,3.1,7,7V105z"/>
<path fill="#C1C1C0" d="M92,105c0,3.8-3.1,7-7,7H43c-3.8,0-7-3.1-7-7V29c0-3.8,3.1-7,7-7H85c3.8,0,7,3.1,7,7V105z"/>
<path fill="none" stroke="#3D3D3D" stroke-width="2" stroke-linejoin="round" stroke-miterlimit="10" d="M92,105c0,3.8-3.1,7-7,7H43
	c-3.8,0-7-3.1-7-7V29c0-3.8,3.1-7,7-7H85c3.8,0,7,3.1,7,7V105z"/>
<rect x="43" y="37" fill="#FFFFFF" width="42" height="60"/>
<rect x="43" y="37" fill="none" stroke="#3D3D3D" stroke-width="2" stroke-linejoin="round" stroke-miterlimit="10" width="42" height="60"/>
<line fill="none" stroke="#3D3D3D" stroke-width="2" stroke-linejoin="round" stroke-miterlimit="10" x1="55" y1="30" x2="73" y2="30"/>
<circle fill="#3D3D3D" cx="64.1" cy="104.4" r="3.4"/>
<path fill="#53AF80" d="M64.2,49.7c-6.3,0-11.3,5.1-11.3,11.3c0,14,11.3,22.5,11.3,22.5S75.5,74.7,75.5,61
	C75.5,54.7,70.4,49.7,64.2,49.7z M64.2,66.7c-3,0-5.5-2.5-5.5-5.5c0-3,2.5-5.5,5.5-5.5c3,0,5.5,2.5,5.5,5.5
	C69.7,64.2,67.2,66.7,64.2,66.7z"/>
<path fill="none" stroke="#3D3D3D" stroke-width="2" stroke-linejoin="round" stroke-miterlimit="10" d="M75.5,61
	c0,13.7-11.3,22.5-11.3,22.5S52.8,75,52.8,61c0-6.3,5.1-11.3,11.3-11.3C70.4,49.7,75.5,54.7,75.5,61z"/>
<circle fill="none" stroke="#3D3D3D" stroke-width="2" stroke-linejoin="round" stroke-miterlimit="10" cx="64.2" cy="61.2" r="5.5"/>
</svg>
