<?xml version="1.0" encoding="utf-8"?>
<!-- Generator: Adobe Illustrator 18.0.0, SVG Export Plug-In . SVG Version: 6.00 Build 0)  -->
<!DOCTYPE svg PUBLIC "-//W3C//DTD SVG 1.1//EN" "http://www.w3.org/Graphics/SVG/1.1/DTD/svg11.dtd">
<svg version="1.1" id="Layer_1" xmlns="http://www.w3.org/2000/svg" xmlns:xlink="http://www.w3.org/1999/xlink" x="0px" y="0px"
	 viewBox="0 0 128 128" enable-background="new 0 0 128 128" xml:space="preserve">
<polyline fill="#FFFFFF" points="36,109 36,18 93,18 93,109 "/>
<rect x="36" y="18" fill="none" stroke="#3D3D3D" stroke-width="2" stroke-miterlimit="10" width="57" height="91"/>
<rect x="44" y="18" fill="#8DCEA8" width="66" height="91"/>
<rect x="44" y="18" fill="none" stroke="#3D3D3D" stroke-width="2" stroke-miterlimit="10" width="66" height="91"/>
<path fill="#53AF80" d="M113.8,109H111c-0.7,0-1,0.1-1-0.7V19.1c0-0.7,0.2-1.1,1-1.1h2.8c2.2,0,4.2,1.6,4.2,3.8v83.8
	C118,107.9,116,109,113.8,109z"/>
<path fill="none" stroke="#3D3D3D" stroke-width="2" stroke-miterlimit="10" d="M113.8,109H111c-0.7,0-1,0.1-1-0.7V19.1
	c0-0.7,0.2-1.1,1-1.1h2.8c2.2,0,4.2,1.6,4.2,3.8v83.8C118,107.9,116,109,113.8,109z"/>
<line fill="none" stroke="#3D3D3D" stroke-width="2" stroke-miterlimit="10" x1="40" y1="18" x2="40" y2="109"/>
<rect x="58" y="18" fill="#3D3D3D" width="4" height="92"/>
<path fill="none" stroke="#3D3D3D" stroke-width="2" stroke-linecap="round" stroke-miterlimit="10" d="M98.2,109.4
	c0,0-0.5,6.4,3.2,9.6s8.2,4.6,8.2,4.6"/>
<rect x="73" y="33" fill="#FFFFFF" width="27" height="20"/>
<rect x="73" y="33" fill="none" stroke="#3D3D3D" stroke-width="2" stroke-miterlimit="10" width="28" height="19"/>
<line fill="none" stroke="#3D3D3D" stroke-width="2" stroke-miterlimit="10" x1="79" y1="38" x2="95" y2="38"/>
<line fill="none" stroke="#3D3D3D" stroke-width="2" stroke-miterlimit="10" x1="79" y1="42" x2="95" y2="42"/>
<line fill="none" stroke="#3D3D3D" stroke-width="2" stroke-miterlimit="10" x1="84" y1="46" x2="90" y2="46"/>
<rect x="15" y="33" fill="#8DCEA8" width="8" height="67"/>
<rect x="19" y="33" fill="#53AF80" width="4" height="67"/>
<path fill="none" stroke="#3D3D3D" stroke-width="2" stroke-miterlimit="10" d="M22,33h-5.5c-0.8,0-1.6,0.4-1.6,1.2V100h8V34.2
	C23,33.4,22.8,33,22,33z"/>
<path fill="#FFFFFF" d="M20.7,107h-2.7c-1.5,0-2.9-1.5-2.9-3v-4h8v4C23,105.5,22.2,107,20.7,107z"/>
<path fill="none" stroke="#3D3D3D" stroke-width="2" stroke-miterlimit="10" d="M20,107h-2c-1.6,0-3-1.3-3-3v-4h8v4
	C23,105.7,21.6,107,20,107z"/>
<line fill="none" stroke="#3D3D3D" stroke-width="2" stroke-miterlimit="10" x1="15" y1="96" x2="23" y2="96"/>
<line fill="none" stroke="#3D3D3D" stroke-width="2" stroke-miterlimit="10" x1="15" y1="93" x2="23" y2="93"/>
<polyline fill="none" stroke="#3D3D3D" stroke-width="2" stroke-linecap="round" stroke-linejoin="round" stroke-miterlimit="10" points="
	23.1,34.2 19,21.9 14.9,34.2 "/>
</svg>
