<?xml version="1.0" encoding="utf-8"?>
<!-- Generator: Adobe Illustrator 18.0.0, SVG Export Plug-In . SVG Version: 6.00 Build 0)  -->
<!DOCTYPE svg PUBLIC "-//W3C//DTD SVG 1.1//EN" "http://www.w3.org/Graphics/SVG/1.1/DTD/svg11.dtd">
<svg version="1.1" id="Layer_1" xmlns="http://www.w3.org/2000/svg" xmlns:xlink="http://www.w3.org/1999/xlink" x="0px" y="0px"
	 viewBox="0 0 128 128" enable-background="new 0 0 128 128" xml:space="preserve">
<path fill="#8DCEA8" d="M60,119c-21.7,0-39.3-17.3-39.3-39S38.4,41,60,41h11v78H60z"/>
<path fill="none" stroke="#3D3D3D" stroke-width="2" stroke-miterlimit="10" d="M60,119c-21.7,0-39.3-17.3-39.3-39S38.4,41,60,41h8
	v78H60z"/>
<circle fill="#C1C1C0" cx="68" cy="80" r="39.3"/>
<circle fill="none" stroke="#3D3D3D" stroke-width="2" stroke-miterlimit="10" cx="68" cy="80" r="39.3"/>
<circle fill="#FFFFFF" cx="68" cy="80" r="30.2"/>
<circle fill="none" stroke="#3D3D3D" stroke-width="2" stroke-miterlimit="10" cx="68" cy="80" r="31.3"/>
<line fill="none" stroke="#3D3D3D" stroke-width="2" stroke-miterlimit="10" x1="64" y1="41" x2="64" y2="29"/>
<g>
	<path fill="#3D3D3D" d="M68,75.8c1.1,0,2.2,0.4,3,1.3c1.7,1.7,1.7,4.4,0,6c-2.6,2.6-13.2,10.2-17.3,11.3c0.4-1.3,1.6-3.9,4.5-8.3
		c2.7-4,5.7-7.9,6.8-9C65.7,76.2,66.8,75.8,68,75.8 M68,73.8c-1.6,0-3.2,0.6-4.4,1.8c-2.4,2.4-14.1,18.1-11.6,20.5
		c0.2,0.2,0.6,0.3,1,0.3c4.3,0,17.3-9.8,19.5-12c2.4-2.4,2.4-6.4,0-8.9C71.2,74.4,69.6,73.8,68,73.8L68,73.8z"/>
</g>
<circle fill="none" stroke="#3D3D3D" stroke-width="2" stroke-miterlimit="10" cx="63.6" cy="23.1" r="12"/>
<path fill="#3D3D3D" d="M72.4,84.5c-2.4,2.4-6.4,2.4-8.9,0c-2.4-2.4-2.4-6.4,0-8.9S81.6,61.5,84,64C86.5,66.4,74.8,82,72.4,84.5z"/>
<circle fill="#FFFFFF" cx="68" cy="80" r="2.9"/>
<line fill="none" stroke="#3D3D3D" stroke-width="2" stroke-miterlimit="10" x1="68" y1="49" x2="68" y2="56"/>
<line fill="none" stroke="#3D3D3D" stroke-width="2" stroke-miterlimit="10" x1="68" y1="104" x2="68" y2="111"/>
<line fill="none" stroke="#3D3D3D" stroke-width="2" stroke-miterlimit="10" x1="37" y1="80" x2="44" y2="80"/>
<line fill="none" stroke="#3D3D3D" stroke-width="2" stroke-miterlimit="10" x1="92" y1="80" x2="99" y2="80"/>
</svg>
